<?xml version="1.0" encoding="UTF-8" standalone="no"?>
<!-- Created with Inkscape (http://www.inkscape.org/) -->

<svg
   xmlns:dc="http://purl.org/dc/elements/1.1/"
   xmlns:cc="http://creativecommons.org/ns#"
   xmlns:rdf="http://www.w3.org/1999/02/22-rdf-syntax-ns#"
   xmlns:svg="http://www.w3.org/2000/svg"
   xmlns="http://www.w3.org/2000/svg"
   xmlns:xlink="http://www.w3.org/1999/xlink"
   xmlns:sodipodi="http://sodipodi.sourceforge.net/DTD/sodipodi-0.dtd"
   xmlns:inkscape="http://www.inkscape.org/namespaces/inkscape"
   width="210.60834mm"
   height="209.19687mm"
   viewBox="0 0 210.60834 209.19687"
   version="1.1"
   id="svg8130"
   inkscape:version="0.92.1 r15371"
   sodipodi:docname="abstractgreenpattern-1892.svg">
  <defs
     id="defs8124">
    <linearGradient
       inkscape:collect="always"
       id="linearGradient10260">
      <stop
         style="stop-color:#dbc03d;stop-opacity:1;"
         offset="0"
         id="stop10256" />
      <stop
         style="stop-color:#dbc03d;stop-opacity:0;"
         offset="1"
         id="stop10258" />
    </linearGradient>
    <radialGradient
       inkscape:collect="always"
       xlink:href="#linearGradient10260"
       id="radialGradient10262"
       cx="102.83469"
       cy="83.748123"
       fx="102.83469"
       fy="83.748123"
       r="105.30417"
       gradientTransform="matrix(1,0,0,0.99329582,0,0.56146272)"
       gradientUnits="userSpaceOnUse" />
  </defs>
  <sodipodi:namedview
     id="base"
     pagecolor="#ffffff"
     bordercolor="#666666"
     borderopacity="1.0"
     inkscape:pageopacity="0.0"
     inkscape:pageshadow="2"
     inkscape:zoom="0.35"
     inkscape:cx="-74.952341"
     inkscape:cy="149.34218"
     inkscape:document-units="mm"
     inkscape:current-layer="layer1"
     showgrid="false"
     fit-margin-top="0"
     fit-margin-left="0"
     fit-margin-right="0"
     fit-margin-bottom="0"
     inkscape:window-width="1366"
     inkscape:window-height="706"
     inkscape:window-x="-8"
     inkscape:window-y="-8"
     inkscape:window-maximized="1" />
  <metadata
     id="metadata8127">
    <rdf:RDF>
      <cc:Work
         rdf:about="">
        <dc:format>image/svg+xml</dc:format>
        <dc:type
           rdf:resource="http://purl.org/dc/dcmitype/StillImage" />
        <dc:title></dc:title>
        <dc:creator>
          <cc:Agent>
            <dc:title>j4p4n</dc:title>
          </cc:Agent>
        </dc:creator>
        <cc:license
           rdf:resource="http://creativecommons.org/publicdomain/zero/1.0/" />
      </cc:Work>
      <cc:License
         rdf:about="http://creativecommons.org/publicdomain/zero/1.0/">
        <cc:permits
           rdf:resource="http://creativecommons.org/ns#Reproduction" />
        <cc:permits
           rdf:resource="http://creativecommons.org/ns#Distribution" />
        <cc:permits
           rdf:resource="http://creativecommons.org/ns#DerivativeWorks" />
      </cc:License>
    </rdf:RDF>
  </metadata>
  <g
     inkscape:label="Layer 1"
     inkscape:groupmode="layer"
     id="layer1"
     transform="translate(2.4694595,20.850068)">
    <rect
       ry="0.89897478"
       rx="0.89897478"
       y="-20.850067"
       x="-2.469475"
       height="209.19638"
       width="210.60834"
       id="rect10246"
       style="opacity:1;fill:#db903d;fill-opacity:1;stroke:none;stroke-width:0.62626874;stroke-linecap:round;stroke-linejoin:bevel;stroke-miterlimit:22.9260006;stroke-dasharray:none;stroke-dashoffset:1.21209455;stroke-opacity:1;paint-order:stroke fill markers" />
    <rect
       style="opacity:1;fill:url(#radialGradient10262);fill-opacity:1;stroke:none;stroke-width:0.62626874;stroke-linecap:round;stroke-linejoin:bevel;stroke-miterlimit:22.9260006;stroke-dasharray:none;stroke-dashoffset:1.21209455;stroke-opacity:1;paint-order:stroke fill markers"
       id="rect10236"
       width="210.60834"
       height="209.19638"
       x="-2.469475"
       y="-20.850067"
       rx="0.89897478"
       ry="0.89897478" />
    <path
       style="fill:#008037;fill-opacity:1;stroke-width:0.35277781"
       d="M -2.4694595,83.747609 V -20.850068 l 105.3041695,0.0015 105.30417,0.0015 V 83.749599 188.34632 l -27.48855,-0.003 c -21.52902,-0.002 -27.52686,-0.0981 -27.66521,-0.4404 -0.13957,-0.34537 -0.1825,-0.34466 -0.2045,0.004 -0.0222,0.35069 -15.84669,0.44035 -77.63897,0.43988 l -77.6111095,-8.8e-4 z M 125.76722,186.58142 c 0.74066,-0.81842 0.42546,-1.38699 -0.45985,-0.82949 -0.65605,0.41313 -1.02504,1.53721 -0.50459,1.53721 0.17818,0 0.61218,-0.31848 0.96444,-0.70772 z m -100.0953,-0.41676 c -0.0768,-0.23041 -0.32827,-0.4818 -0.55881,-0.55865 -0.25779,-0.0859 -0.33663,0.0754 -0.20479,0.41893 0.24607,0.64125 0.97525,0.77467 0.7636,0.13972 z m 16.6614,-1.7683 c 0,-0.56988 -0.10432,-0.67179 -0.3926,-0.38351 -0.21592,0.21592 -0.28593,0.56517 -0.15557,0.77611 0.36491,0.59043 0.54817,0.45919 0.54817,-0.3926 z m 85.26043,-0.70115 c -0.11261,-0.28142 -0.19621,-0.19783 -0.21313,0.21314 -0.0153,0.37189 0.0681,0.58025 0.18528,0.46302 0.11723,-0.11722 0.12976,-0.4215 0.0278,-0.67616 z m -19.55134,-4.63889 c -0.32017,-0.54954 -0.89366,0.41938 -0.63057,1.06535 0.24578,0.60348 0.27698,0.5997 0.53187,-0.0645 0.14892,-0.38805 0.19334,-0.83845 0.0987,-1.00087 z m -70.75977,0.40556 c -0.11262,-0.28142 -0.19621,-0.19783 -0.21314,0.21314 -0.0153,0.37188 0.0681,0.58024 0.18529,0.46302 0.11722,-0.11722 0.12975,-0.4215 0.0278,-0.67616 z m 96.19059,0.25384 c 0.10929,-0.28483 0.0469,-0.6117 -0.13865,-0.72638 -0.18555,-0.11468 -0.33737,0.11836 -0.33737,0.51787 0,0.8518 0.19618,0.93774 0.47602,0.20851 z m -18.99686,-1.24603 c 0.11992,-0.19402 0.0499,-0.35277 -0.15556,-0.35277 -0.20548,0 -0.3736,0.15875 -0.3736,0.35277 0,0.19403 0.07,0.35278 0.15557,0.35278 0.0856,0 0.25368,-0.15875 0.37359,-0.35278 z m -17.10972,-0.50834 c 0,-0.27959 -0.15875,-0.60646 -0.35278,-0.72638 -0.19402,-0.11992 -0.35277,0.10884 -0.35277,0.50835 0,0.3995 0.15875,0.72637 0.35277,0.72637 0.19403,0 0.35278,-0.22875 0.35278,-0.50834 z m -59.26667,-2.31184 c 27.39148,-0.64225 45.8794,-0.86862 100.01251,-1.22458 19.94313,-0.13114 31.83562,-0.26476 56.97361,-0.64016 0.29104,-0.004 0.65373,-0.18233 0.80597,-0.39552 0.15223,-0.21319 0.18931,-5.86449 0.0824,-12.55845 -0.33305,-20.85048 -0.51695,-36.07229 -0.71173,-58.91389 -0.10342,-12.126741 -0.27196,-28.557361 -0.37454,-36.512501 -0.13754,-10.66716 -0.55854,-76.735551 -0.51339,-80.567931 0.005,-0.410387 -2.3205,-0.452853 -14.72273,-0.268873 -8.10066,0.120168 -17.5066,0.298019 -20.90208,0.395224 -5.17549,0.148162 -42.09129,0.653551 -43.74445,0.598875 -0.29104,-0.0096 -0.92604,-0.04528 -1.41111,-0.07923 -0.48507,-0.03395 -3.02507,0.02501 -5.64444,0.131017 -8.7654,0.354748 -31.05723,0.315295 -31.50433,-0.05576 -0.28852,-0.239455 -0.6399,-0.194124 -1.09934,0.141827 -0.54433,0.39803 -2.90406,0.498402 -12.16983,0.517651 -6.32201,0.01313 -13.47894,0.08484 -15.90428,0.159345 -2.42535,0.07451 -12.78612,0.24425 -23.02394,0.377209 -13.00445,0.168889 -18.6870695,0.359606 -18.8559295,0.632834 -0.59328,0.959953 -0.64572,16.0720836 -0.32089,92.481702 0.2111,49.659241 0.73818,94.226981 1.13119,95.649241 0.20597,0.74538 0.28139,0.75082 8.5560395,0.61776 4.59154,-0.0738 15.09512,-0.29244 23.3413,-0.48579 z M 7.4083205,173.77209 v -1.23942 l 2.55763,-0.23056 C 11.37266,172.1753 16.41297,172.0427 21.16665,172.00743 l 8.64306,-0.0641 0.11806,0.83444 c 0.0649,0.45894 -0.0275,0.98 -0.2054,1.1579 -0.17791,0.17791 -3.48541,0.39407 -7.35001,0.48036 -3.8646,0.0863 -8.81248,0.25559 -10.99529,0.37621 l -3.9687495,0.21931 z m 23.5479095,0.25874 c -0.14552,-0.14566 -0.26458,-0.6928 -0.26458,-1.21587 0,-0.93924 0.036,-0.95359 2.91042,-1.15828 1.60073,-0.11399 6.58063,-0.22362 11.06646,-0.24362 7.88383,-0.0351 8.16222,-0.0127 8.34115,0.67152 0.42958,1.64267 0.0427,1.71063 -11.20553,1.96848 -5.82083,0.13344 -10.7024,0.12344 -10.84792,-0.0222 z m 23.20357,-0.4328 c -0.10165,-0.10165 -0.18482,-0.63461 -0.18482,-1.18436 0,-0.91877 0.10689,-1.00001 1.32292,-1.00548 0.7276,-0.003 5.76792,-0.043 11.2007,-0.0882 l 9.87777,-0.0822 v 1.05833 1.05834 l -8.29027,0.0608 c -4.55966,0.0334 -9.5168,0.12986 -11.01588,0.21422 -1.49908,0.0844 -2.80877,0.0702 -2.91042,-0.0314 z m 24.03731,-7.21316 c -0.33945,-10.47705 -0.2981,-14.72629 0.14331,-14.72629 0.20711,0 0.28751,-0.28055 0.17868,-0.62344 -0.14449,-0.45524 1.01494,-1.86455 4.29776,-5.224 2.47259,-2.53031 7.29793,-7.49845 10.72297,-11.04031 3.42504,-3.54185 6.29891,-6.31074 6.38639,-6.15308 0.0875,0.15766 0.18452,10.24822 0.21565,22.42347 l 0.0566,22.13681 -4.32633,0.0338 c -2.37948,0.0186 -7.27773,0.0969 -10.88499,0.1742 l -6.55866,0.14045 -0.23139,-7.14156 z m 7.76886,-4.2091 c -0.11261,-0.28142 -0.19621,-0.19783 -0.21313,0.21314 -0.0153,0.37188 0.0681,0.58024 0.18528,0.46302 0.11723,-0.11723 0.12976,-0.4215 0.0278,-0.67616 z M 80.60971,151.3058 c 0.11991,-0.19403 -0.10884,-0.35278 -0.50835,-0.35278 -0.39951,0 -0.72638,0.15875 -0.72638,0.35278 0,0.19403 0.22876,0.35278 0.50835,0.35278 0.27959,0 0.60646,-0.15875 0.72638,-0.35278 z m 5.6169,0.0446 c 0.22132,-0.3581 -3.18005,-0.88062 -3.68818,-0.56659 -0.18767,0.11599 -0.34122,0.36028 -0.34122,0.54285 0,0.41857 3.77165,0.44079 4.0294,0.0238 z m 13.06101,-0.42859 c -0.24486,-0.39619 -10.25023,-0.22374 -10.65766,0.18369 -0.11019,0.11019 2.29611,0.20034 5.34733,0.20034 3.9096,0 5.47759,-0.11339 5.31033,-0.38403 z m -1.92097,-4.73125 c 0,-0.29104 -0.23812,-0.52916 -0.52916,-0.52916 -0.91809,0 -0.62057,0.69526 0.44097,1.03048 0.0485,0.0153 0.0882,-0.21027 0.0882,-0.50132 z m 4.06985,20.90209 c -0.13163,-3.34698 -0.18839,-8.22854 -0.12612,-10.84792 l 0.11322,-4.7625 1.14652,-0.11055 c 0.63059,-0.0608 1.15716,0.0186 1.17016,0.17639 0.013,0.15782 0.10044,5.08913 0.19431,10.95847 l 0.17069,10.67153 h -1.21473 -1.21472 z m 3.9054,5.5274 c -0.11778,-0.30691 -0.21414,-5.20965 -0.21414,-10.89497 0,-10.04026 0.0203,-10.34224 0.70556,-10.52146 0.86809,-0.227 0.93931,-0.89627 0.0882,-0.82872 -0.57201,0.0454 -0.63032,-0.74139 -0.79375,-10.71073 -0.097,-5.91784 -0.0379,-10.95816 0.13139,-11.20069 0.16928,-0.24254 0.76449,-0.44097 1.3227,-0.44097 h 1.01493 l -0.0136,17.09397 c -0.007,9.40168 0.0946,19.14331 0.22684,21.64806 0.29574,5.60212 0.13885,6.41353 -1.24015,6.41353 -0.59908,0 -1.10147,-0.2283 -1.228,-0.55802 z m 3.9099,0.31332 c -0.14492,-0.23489 -0.40491,-20.11615 -0.28167,-21.53933 0.021,-0.24254 0.44443,-0.44098 0.94095,-0.44098 0.56024,0 0.81284,-0.14551 0.66575,-0.38351 -0.13037,-0.21093 -0.53727,-0.30499 -0.90424,-0.20903 -0.47476,0.12415 -0.71472,-0.0451 -0.83192,-0.58663 -0.0906,-0.41861 -0.12962,-5.44423 -0.0867,-11.16805 l 0.078,-10.40694 1.24822,-0.10504 1.24823,-0.10504 0.14942,19.15504 c 0.0822,10.53527 0.15549,20.66316 0.16289,22.50643 l 0.0134,3.35139 -1.11342,0.10807 c -0.61238,0.0594 -1.1924,-0.0199 -1.28893,-0.17638 z m 4.07638,-0.19628 c -0.2104,-0.2631 -0.40569,-4.70967 -0.48416,-11.0243 l -0.13153,-10.58334 0.97013,-0.11162 c 0.60956,-0.0701 0.9856,0.061 1.01173,0.35278 0.16202,1.80943 0.20359,3.59329 0.26978,11.5769 0.041,4.94771 0.0671,9.27365 0.058,9.6132 -0.0193,0.71834 -1.16514,0.83765 -1.69395,0.17638 z m 9.28843,0.13083 c -0.10542,-0.17058 -0.2749,-3.62339 -0.37661,-7.67292 -0.10171,-4.04952 -0.2693,-8.89728 -0.37242,-10.77281 -0.1202,-2.18605 -0.0555,-3.49164 0.18036,-3.63738 0.24917,-0.154 0.25372,-0.44058 0.0141,-0.8883 -0.21396,-0.39978 -0.35373,-4.85202 -0.35373,-11.26748 v -10.60656 h 0.88194 c 0.48507,0 0.89345,0.19843 0.90751,0.44097 0.0141,0.24253 0.0901,5.4416 0.16902,11.55347 0.0789,6.11188 0.25206,15.929 0.3848,21.81582 0.20353,9.02663 0.16324,10.75275 -0.25721,11.0189 -0.63407,0.40137 -0.93717,0.40556 -1.17777,0.0163 z m 2.98734,-0.36723 c -0.20985,-0.39212 -0.425,-8.20987 -0.54089,-19.65423 -0.10584,-10.45171 -0.27707,-19.91796 -0.38051,-21.03611 -0.10343,-1.11814 -0.0893,-2.19272 0.0313,-2.38795 0.19263,-0.31169 13.51306,12.17829 19.98017,18.73453 l 2.34821,2.38057 0.20698,2.58903 c 0.11384,1.42397 0.29795,6.3603 0.40914,10.96963 0.1629,6.75359 0.11202,8.41046 -0.26214,8.53441 -0.25536,0.0846 -5.18468,0.23648 -10.95405,0.33752 -9.94056,0.17408 -10.508,0.14961 -10.83822,-0.4674 z m 13.21409,-22.05975 c 6.40088,-0.17942 5.82084,-0.12903 5.82084,-0.50565 0,-0.17561 -3.12557,-0.24854 -7.14375,-0.16667 -3.92907,0.08 -7.98658,0.13759 -9.01669,0.12789 -1.03012,-0.01 -2.062,0.10499 -2.29306,0.25487 -0.47032,0.30508 4.19048,0.72528 6.10627,0.55052 0.6791,-0.0619 3.61598,-0.17938 6.52639,-0.26096 z m -10.40694,-8.20149 c 0,-0.70943 -0.10198,-0.85052 -0.39962,-0.55288 -0.21979,0.21979 -0.30415,0.64842 -0.18746,0.9525 0.32294,0.84158 0.58708,0.66179 0.58708,-0.39962 z m -12.11643,27.67542 c -0.12461,-1.60073 -0.22752,-6.53252 -0.22868,-10.95954 l -0.002,-8.04913 0.97013,0.11163 0.97014,0.11162 0.0638,3.35139 c 0.0351,1.84327 0.13572,6.72483 0.22358,10.84792 l 0.15976,7.49653 h -0.96504 c -0.95524,0 -0.96734,-0.0296 -1.1916,-2.91042 z m 3.28575,1.5875 c -0.006,-0.7276 -0.12523,-7.99042 -0.26458,-16.13958 -0.13934,-8.14917 -0.25335,-17.5948 -0.25335,-20.99028 0,-5.93843 0.0269,-6.17361 0.70555,-6.17361 0.68948,0 0.70706,0.25724 0.77174,11.28889 0.067,11.42847 0.31875,22.62587 0.66428,29.54514 l 0.18938,3.79236 h -0.90089 c -0.80385,0 -0.90211,-0.1425 -0.91213,-1.32292 z m 29.87975,1.08773 c -0.40617,-0.40617 -0.25573,-1.89728 0.20579,-2.03967 0.24253,-0.0748 5.22497,-0.23251 11.07208,-0.35039 l 10.6311,-0.21434 0.2165,0.86259 c 0.5073,2.02126 0.75469,1.977 -11.05071,1.977 -5.96176,0 -10.94541,-0.10583 -11.07476,-0.23519 z m 23.04815,-1.12491 v -1.46212 l 4.49792,-0.0471 c 2.47385,-0.0259 7.11729,-0.10283 10.31875,-0.17096 7.27367,-0.15477 7.40833,-0.12824 7.40833,1.4595 v 1.228 l -8.73125,0.002 c -4.80219,0.001 -9.80281,0.10371 -11.1125,0.2274 l -2.38125,0.2249 v -1.46213 z M 7.2885205,170.55247 c -0.22404,-0.58386 0.0427,-1.60366 0.42212,-1.61389 0.12476,-0.004 4.0368395,-0.0848 8.6935095,-0.18087 4.65667,-0.0961 9.5275,-0.25222 10.82407,-0.3469 2.16281,-0.15796 2.37681,-0.11098 2.59268,0.56915 0.1294,0.40772 0.0729,0.90368 -0.12553,1.10212 -0.2181,0.21811 -3.61552,0.40764 -8.58991,0.4792 -4.526,0.0651 -9.43892,0.21339 -10.91759,0.3295 -2.2393495,0.17585 -2.7237295,0.11933 -2.8993495,-0.33831 z M 30.79431,169.76172 c -0.098,-0.25534 -0.0868,-0.70237 0.0249,-0.99342 0.17267,-0.44995 1.51166,-0.53197 8.94538,-0.5479 4.80828,-0.0103 9.67533,-0.10606 10.81566,-0.2128 2.2087,-0.20675 2.7522,0.0907 2.42839,1.32892 -0.16139,0.61715 -0.5827,0.66715 -5.6894,0.67522 -3.0333,0.005 -7.95223,0.055 -10.93095,0.11147 -4.22589,0.0802 -5.45499,7.1e-4 -5.59399,-0.36149 z M 53.88598,169.348 c -0.0975,-0.37289 -0.0777,-0.83632 0.0441,-1.02985 0.1367,-0.2173 4.47114,-0.40088 11.33384,-0.48002 l 11.11251,-0.12816 v 1.05833 1.05834 l -11.15655,0.0997 c -10.75284,0.0961 -11.16296,0.0752 -11.33385,-0.57831 z m 95.33901,-1.44672 v -1.42603 l 2.38125,-0.0197 c 1.30968,-0.0108 6.32046,-0.0998 11.13506,-0.19766 l 8.75382,-0.17797 -0.11076,1.34419 -0.11076,1.34418 -3.35139,0.0448 c -1.84326,0.0246 -6.8042,0.15041 -11.02431,0.27951 l -7.67291,0.23473 z m 23.07966,-0.13798 c -0.12127,-0.55276 -0.0854,-1.13862 0.0798,-1.30192 0.16515,-0.1633 5.22152,-0.33027 11.23638,-0.37103 l 10.93611,-0.0741 0.11073,1.11388 c 0.0681,0.68471 -0.0679,1.17848 -0.35278,1.28153 -0.25493,0.0922 -5.26191,0.21018 -11.12663,0.26216 l -10.66313,0.0945 z M 7.1838605,166.94168 c -0.10562,-0.42256 -0.0876,-1.09724 0.04,-1.49931 0.22416,-0.70628 0.46693,-0.73145 7.1755995,-0.74401 3.81897,-0.007 8.80756,-0.10301 11.08575,-0.213 4.5053,-0.21753 4.83265,-0.0855 4.36898,1.7619 l -0.20801,0.82877 -11.13514,0.31697 -11.1351395,0.31697 z M 30.82699,166.67189 c -0.10512,-0.27396 -0.13889,-0.86684 -0.0751,-1.31751 l 0.1161,-0.81941 11.0243,-0.0932 11.02431,-0.0932 v 1.21356 1.21357 l -6.26181,0.0478 c -3.44399,0.0263 -8.37116,0.11502 -10.94926,0.19717 -3.81161,0.12146 -4.72316,0.0563 -4.87859,-0.34873 z m 23.49897,-0.13784 c -0.19304,-0.0647 -0.35098,-0.58062 -0.35098,-1.14653 v -1.02894 h 11.28889 11.28889 v 0.85387 c 0,0.78827 -0.16938,0.87111 -2.20486,1.07841 -2.32561,0.23685 -19.42111,0.44449 -20.02194,0.24319 z m 94.89881,-2.40181 c 1.7e-4,-0.85719 0.18005,-1.15176 0.79397,-1.30019 0.43656,-0.10555 5.43718,-0.30469 11.1125,-0.44253 l 10.31875,-0.25062 v 1.2973 c 0,0.72193 -0.19558,1.36444 -0.44097,1.44867 -0.24254,0.0832 -5.24326,0.19733 -11.11272,0.25351 l -10.67174,0.10215 z m 23.51883,0.69681 c -0.32325,-0.32326 -0.29818,-2.57632 0.0293,-2.63263 1.01062,-0.17375 3.50405,-0.23277 11.72986,-0.27764 5.14174,-0.0281 9.54705,-0.0462 9.78958,-0.0403 0.27751,0.007 0.44098,0.53378 0.44098,1.42179 v 1.41111 l -7.14375,0.0238 c -3.92907,0.013 -8.82381,0.0925 -10.87722,0.17648 -2.05341,0.084 -3.83935,0.0469 -3.96875,-0.0825 z M 7.2016305,163.17212 c -0.52984,-1.38073 0.031,-1.63516 3.6351995,-1.64921 1.89786,-0.007 6.90346,-0.0689 11.12357,-0.13677 l 7.67292,-0.12333 v 1.01872 1.01872 l -9.26042,0.003 c -5.09323,0.002 -10.0905,0.10278 -11.1050595,0.22465 -1.51647,0.18216 -1.88405,0.11886 -2.06621,-0.35585 z M 30.79524,162.70859 c -0.0985,-0.25667 -0.0877,-0.7048 0.024,-0.99584 0.16956,-0.44186 1.20889,-0.52995 6.29955,-0.5339 3.35307,-0.002 8.2793,-0.0946 10.94718,-0.2044 l 4.8507,-0.19967 v 1.08635 c 0,0.88323 -0.14841,1.09149 -0.79375,1.11389 -0.43656,0.0152 -5.37359,0.0664 -10.97117,0.11389 -8.17647,0.0694 -10.21262,-0.005 -10.35649,-0.38032 z m 23.17974,-0.67512 v -1.17824 l 8.37848,-0.1004 c 4.60816,-0.0552 9.64847,-0.021 11.20069,0.076 2.72815,0.17051 2.82222,0.20579 2.82222,1.05834 0,0.86572 -0.0649,0.88642 -3.52777,1.1253 -1.94028,0.13384 -6.9806,0.23298 -11.2007,0.22031 l -7.67292,-0.023 z m 95.17189,-1.11051 c -0.1035,-0.39579 -0.0771,-0.89937 0.0587,-1.11907 0.17007,-0.27519 3.42153,-0.45855 10.4519,-0.58941 5.61276,-0.10447 10.47731,-0.24348 10.81011,-0.30891 0.67383,-0.13248 1.24574,1.09746 0.74373,1.59947 -0.16982,0.16982 -2.60653,0.37783 -5.4149,0.46225 -2.80838,0.0844 -7.66107,0.27089 -10.78375,0.41438 -5.52768,0.254 -5.68258,0.24188 -5.86579,-0.45871 z m 23.44965,-0.34676 c -0.48258,-0.17178 -0.60531,-1.36608 -0.16815,-1.63626 0.15006,-0.0927 5.19037,-0.21211 11.2007,-0.26526 l 10.92786,-0.0966 0.11294,0.77517 c 0.0621,0.42635 -0.0966,0.85091 -0.35278,0.94347 -0.60874,0.21996 -21.14542,0.48424 -21.72057,0.27951 z M 7.2658805,159.91014 c -0.12841,-0.33464 -0.0673,-0.77463 0.13587,-0.97777 0.35444,-0.35444 19.6426795,-0.91055 21.4378195,-0.61808 0.56495,0.092 0.79375,0.37168 0.79375,0.97014 v 0.84082 H 19.07883 c -5.80496,0 -10.7850995,0.0885 -11.0669695,0.19666 -0.29325,0.11253 -0.61238,-0.0636 -0.74598,-0.41177 z M 30.83839,159.80187 c -0.0807,-0.0808 -0.14674,-0.41646 -0.14674,-0.7458 0,-0.88748 1.94751,-1.04749 12.74924,-1.04749 9.2102,0 9.47576,0.0196 9.47576,0.69884 0,0.43479 -0.2999,0.76863 -0.79375,0.88357 -0.9532,0.22186 -21.07454,0.42121 -21.28451,0.21088 z m 24.10673,-0.31742 c -1.01351,-0.11661 -1.28527,-0.81113 -0.52916,-1.35234 0.72563,-0.5194 21.30803,-0.38644 21.8363,0.14105 0.27834,0.27794 0.31771,0.56301 0.10647,0.77105 -0.31004,0.30536 -19.20902,0.69391 -21.41361,0.44024 z m 94.26595,-1.66903 c -0.28206,-0.33986 -0.32583,-0.66654 -0.11724,-0.87512 0.3819,-0.3819 5.4526,-0.65978 15.24093,-0.83522 5.68645,-0.10192 6.85184,-0.0379 7.0142,0.38518 0.10709,0.27908 0.0463,0.65579 -0.135,0.83713 -0.18134,0.18134 -4.29024,0.41281 -9.13087,0.51437 -4.84064,0.10156 -9.61583,0.2592 -10.61155,0.35031 -1.35092,0.12361 -1.92463,0.028 -2.26047,-0.37665 z m 23.06918,-0.69626 c -0.12012,-0.31301 -0.0782,-0.70089 0.093,-0.86196 0.17128,-0.16106 5.19099,-0.4067 11.1549,-0.54587 9.97457,-0.23275 10.86172,-0.20548 11.07115,0.34027 0.12522,0.32631 0.0875,0.72243 -0.0838,0.88026 -0.17128,0.15782 -5.19516,0.39259 -11.16418,0.52169 -9.79589,0.21188 -10.87402,0.17932 -11.07115,-0.33439 z M 7.1935205,156.80098 c -0.12742,-0.33204 -0.0915,-0.73747 0.0798,-0.90094 0.17128,-0.16348 5.2304095,-0.35125 11.2425095,-0.41726 9.95375,-0.1093 10.94118,-0.0678 11.04384,0.46444 0.062,0.32145 -0.0234,0.66864 -0.18991,0.77152 -0.16646,0.10288 -5.17208,0.29931 -11.1236,0.43651 C 8.2229605,157.38631 7.4081505,157.3602 7.1935605,156.80098 Z M 30.7981,156.36604 c -0.11007,-0.28685 -0.06,-0.65782 0.11129,-0.82439 0.2356,-0.22909 19.1421,-0.56947 21.56629,-0.38826 0.76427,0.0571 0.47773,1.07003 -0.35278,1.24701 -0.43656,0.093 -5.36821,0.2407 -10.9592,0.32817 -8.74512,0.1368 -10.19343,0.0861 -10.3656,-0.36253 z m 29.61508,0.33078 c -6.01152,-0.10763 -6.4382,-0.15896 -6.4382,-0.77462 0,-0.97941 0.87468,-1.0798 9.75246,-1.11928 12.92412,-0.0575 13.10146,-0.0411 12.63794,1.16681 -0.36149,0.94205 -1.37205,0.98811 -15.9522,0.72709 z m 88.87568,-1.72403 c -0.29221,-0.21448 -0.44082,-0.62573 -0.33024,-0.91388 0.23977,-0.62484 6.21556,-0.98922 16.22301,-0.98922 5.8283,0 6.31103,0.048 6.20368,0.61736 -0.155,0.82197 -2.40749,1.06315 -13.13149,1.40604 -5.99427,0.19166 -8.58735,0.15686 -8.96496,-0.1203 z m 23.83682,-0.42722 c -0.65873,-0.0758 -0.97014,-0.316 -0.97014,-0.74831 0,-0.91024 1.72843,-1.06165 12.65798,-1.10881 7.45327,-0.0322 9.36634,0.0545 9.60661,0.43513 0.73039,1.15703 -0.66892,1.35654 -9.72021,1.38588 -4.86211,0.0158 -9.23708,0.0554 -9.72215,0.0882 -0.48507,0.0327 -1.31851,0.009 -1.85209,-0.0521 z M 7.2106305,154.02335 c -0.11969,-0.3119 -0.1148,-0.73345 0.0109,-0.93676 0.15143,-0.24503 3.9683095,-0.36968 11.3201495,-0.36968 10.85649,0 11.09168,0.015 11.09168,0.70556 0,0.67564 -0.23558,0.7056 -5.55625,0.70673 -3.05594,7e-4 -8.05208,0.10469 -11.10254,0.23121 -4.9044895,0.20341 -5.5714695,0.16441 -5.7638995,-0.33706 z M 31.04189,153.83404 c -0.19263,-0.0647 -0.35024,-0.32219 -0.35024,-0.57227 0,-0.71355 1.95028,-0.85441 12.23415,-0.88357 9.3333,-0.0264 10.70144,0.12201 9.76388,1.05957 -0.28336,0.28336 -20.86211,0.66006 -21.64779,0.39627 z m 22.72363,-0.46509 c -0.13811,-0.22346 0.0113,-0.59815 0.33196,-0.83264 0.71391,-0.52202 0.73025,-0.83522 0.0812,-1.55551 -0.40199,-0.44609 -0.53029,-2.57751 -0.64459,-10.70838 -0.0785,-5.58329 -0.0286,-10.10766 0.11079,-10.05417 0.31331,0.12023 5.07197,4.41435 7.53568,6.80005 1.00186,0.97014 2.60827,2.48156 3.56981,3.35871 5.82011,5.30932 10.74408,9.99383 10.74408,10.22155 0,0.14513 -2.65906,0.27409 -5.90903,0.28658 -7.27549,0.028 -13.8195,0.27604 -14.0771,0.53364 -0.58293,0.58294 0.56866,0.83599 3.48347,0.76548 3.34828,-0.081 14.98436,-0.21397 16.41446,-0.18756 0.53699,0.01 0.79375,0.22958 0.79375,0.67907 0,0.39081 -0.32686,0.752 -0.79375,0.87712 -1.55808,0.41756 -21.37306,0.24913 -21.64071,-0.18394 z m 95.23347,-1.53606 c -0.12126,-0.31598 -0.0803,-0.7073 0.091,-0.8696 0.63364,-0.60039 21.44386,-1.06755 22.01716,-0.49426 0.95807,0.95808 -0.38167,1.168 -8.66592,1.35781 -4.64953,0.10654 -9.52651,0.28075 -10.83772,0.38714 -1.99342,0.16173 -2.42014,0.0993 -2.60448,-0.38109 z M 8.1138705,151.27077 c 0,-0.17476 0.27781,-0.60595 0.61736,-0.9582 0.33955,-0.35224 3.0779895,-3.24482 6.0854195,-6.42795 3.00743,-3.18312 7.2143,-7.59673 9.34861,-9.808 2.13431,-2.21128 4.09179,-4.24141 4.34997,-4.5114 0.25818,-0.27 0.61536,-0.4007 0.79375,-0.29045 0.18596,0.11492 0.32434,4.85752 0.32434,11.11574 v 10.91529 l -7.14375,0.0204 c -3.92907,0.0112 -8.77094,0.0748 -10.75973,0.14136 -1.9991895,0.0669 -3.6159695,-0.0212 -3.6159695,-0.19682 z M 172.22024,150.87821 c 0.11128,-0.76181 0.15189,-0.76515 11.0905,-0.91399 6.40151,-0.0871 11.06162,-0.0154 11.17742,0.17197 0.62057,1.0041 -0.52055,1.1369 -11.34139,1.31993 l -11.03823,0.1867 z M 30.52818,144.51483 c -0.1323,-3.73504 -0.18934,-8.77535 -0.12674,-11.2007 l 0.11382,-4.40972 h 10.65399 c 6.64898,0 10.77718,0.13262 10.9817,0.35278 0.18025,0.19403 0.43639,5.12935 0.5692,10.96738 l 0.24146,10.6146 -8.01699,0.23332 c -4.40935,0.12832 -9.40274,0.23331 -11.09644,0.23331 h -3.07945 z m 2.28014,-12.43542 c 0,-0.29104 -0.15875,-0.52917 -0.35278,-0.52917 -0.19403,0 -0.35278,0.23813 -0.35278,0.52917 0,0.29104 0.15875,0.52917 0.35278,0.52917 0.19403,0 0.35278,-0.23813 0.35278,-0.52917 z m 68.6495,18.26108 c -0.11584,-0.11584 -0.21061,-5.18478 -0.21061,-11.26432 v -11.0537 h 1.23472 1.23472 l 0.0648,7.67291 c 0.0356,4.22011 0.0518,8.22855 0.0359,8.90764 -0.0159,0.6791 -0.045,2.28213 -0.0648,3.56229 -0.0358,2.31842 -0.04,2.32768 -1.06004,2.35668 -0.56326,0.016 -1.11888,-0.0657 -1.23473,-0.1815 z m 11.26481,-0.37686 c -0.10259,-0.10259 -0.18653,-5.09187 -0.18653,-11.08728 V 127.9756 l 0.97014,0.11163 0.97013,0.11163 0.17639,9.34861 c 0.21366,11.32387 0.12314,12.5085 -0.95999,12.56315 -0.43098,0.0217 -0.86755,-0.0444 -0.97014,-0.14699 z m 3.29043,-1.29066 c -0.0691,-0.89171 -0.12557,-5.86318 -0.12557,-11.0477 v -9.42641 h 0.88194 0.88195 l 0.0933,10.84791 c 0.0562,6.54132 -0.0373,10.84792 -0.23573,10.84792 -0.18097,0 -0.56331,0.0899 -0.84966,0.19979 -0.4029,0.1546 -0.54904,-0.16687 -0.64622,-1.42151 z M 6.9294005,147.3735 c -0.12465,-1.19263 -0.22664,-5.80136 -0.22664,-10.24163 0,-6.14988 0.10506,-8.10605 0.44097,-8.21104 0.24254,-0.0758 2.74285,-0.22501 5.5562495,-0.33154 2.8134,-0.10655 5.15497,-0.19829 5.20347,-0.20388 0.0485,-0.006 0.0882,-0.19077 0.0882,-0.41151 0,-0.2837 -0.59461,-0.32478 -2.02847,-0.14012 -1.11566,0.14368 -2.2666,0.24648 -2.55764,0.22842 -0.29104,-0.0181 -1.87854,-0.074 -3.5277795,-0.12447 l -2.99861,-0.0917 -0.17639,-10.40695 c -0.097,-5.72382 -0.0784,-10.53668 0.0414,-10.69526 0.26841,-0.35538 21.1252995,20.14367 21.1252995,20.76285 0,0.24473 -2.51526,3.04058 -5.58947,6.213 -3.07421,3.17241 -6.44765,6.72032 -7.49653,7.88423 -1.04888,1.16391 -3.058,3.28723 -4.4647,4.7185 -1.4066995,1.43126 -2.5576395,2.74116 -2.5576395,2.91088 0,0.16972 -0.13613,0.30858 -0.30252,0.30858 -0.16639,0 -0.40451,-0.97578 -0.52917,-2.16841 z M 14.11109,132.43219 c 0,-0.29104 -0.0624,-0.52917 -0.13864,-0.52917 -0.0763,0 -0.23003,0.23813 -0.34171,0.52917 -0.11168,0.29104 -0.0493,0.52917 0.13865,0.52917 0.18794,0 0.3417,-0.23813 0.3417,-0.52917 z m 11.46528,-4.40972 c 0.47314,-0.20332 -0.26002,-0.31136 -2.22568,-0.32798 -1.8702,-0.0158 -2.85232,0.1029 -2.71321,0.32798 0.26308,0.42566 3.94833,0.42566 4.93889,0 z m 123.86265,21.26311 c -0.0726,-0.0726 4.72081,-4.96295 10.65194,-10.86751 5.93114,-5.90456 10.82429,-10.69516 10.87367,-10.64577 0.0494,0.0494 0.12559,4.76931 0.16933,10.48873 l 0.0795,10.39894 -3.49772,0.24756 c -4.02069,0.28458 -18.07942,0.57538 -18.27675,0.37805 z m 23.59847,-0.34788 c -0.38806,-0.10063 -0.78493,-0.30975 -0.88195,-0.46471 -0.097,-0.15496 -0.17639,-5.01816 -0.17639,-10.80711 v -10.52536 l 10.97424,-0.0595 10.97423,-0.0595 0.22435,2.88173 c 0.33406,4.29096 0.27529,18.15704 -0.0779,18.37532 -0.16855,0.10417 -4.46987,0.27304 -9.55848,0.37527 -5.0886,0.10224 -9.59413,0.24909 -10.01228,0.32635 -0.41815,0.0773 -1.07778,0.0581 -1.46583,-0.0425 z m 1.5875,-14.91801 c 0,-0.19403 -0.15875,-0.35278 -0.35278,-0.35278 -0.19403,0 -0.35278,0.15875 -0.35278,0.35278 0,0.19403 0.15875,0.35278 0.35278,0.35278 0.19403,0 0.35278,-0.15875 0.35278,-0.35278 z m -0.70556,-2.36361 c 0,-0.70943 -0.10198,-0.85052 -0.39962,-0.55288 -0.21979,0.21979 -0.30415,0.64841 -0.18746,0.9525 0.32294,0.84158 0.58708,0.66178 0.58708,-0.39962 z m 1.05293,-2.50791 c 0.003,-0.25398 -0.15334,-0.36367 -0.34737,-0.24376 -0.19403,0.11992 -0.35035,0.56585 -0.34738,0.99096 0.004,0.62838 0.0694,0.67397 0.34738,0.24376 0.18809,-0.29104 0.3444,-0.73697 0.34737,-0.99096 z M 69.44742,142.39816 C 62.703,136.10951 57.81854,131.65698 55.82707,129.98225 c -1.10579,-0.92991 -1.52291,-1.95978 -0.79375,-1.95978 0.19402,0 0.35277,-0.23259 0.35277,-0.51687 0,-0.39673 5.17997,-6.01657 9.39852,-10.19662 9.15615,-9.0726 11.72662,-11.51152 12.13239,-11.51152 0.27107,0 2.42358,1.96463 4.78334,4.36584 2.35977,2.40121 4.45113,4.42527 4.64747,4.49792 0.67699,0.25047 11.74708,11.00014 11.64461,11.30755 -0.0565,0.16943 -4.70507,0.34364 -10.3302,0.38713 l -10.22751,0.0791 -0.17639,-9.67227 c -0.12416,-6.80833 -0.29592,-9.71203 -0.58008,-9.80656 -0.29752,-0.099 -0.3903,2.49138 -0.35278,9.84866 l 0.0509,9.98294 -0.88194,0.0279 c -0.48507,0.0153 -2.42976,0.055 -4.32153,0.0882 -2.13215,0.0374 -3.43959,0.20135 -3.43959,0.43132 0,0.24252 1.49642,0.35028 4.32153,0.31119 l 4.32153,-0.0598 0.089,10.44853 c 0.049,5.74668 -0.0416,10.44852 -0.20124,10.44852 -0.15966,0 -3.2272,-2.73844 -6.81675,-6.08542 z m -8.76966,-14.72847 c 0,-0.19403 -0.3875,-0.35278 -0.86112,-0.35278 -0.47362,0 -0.95924,0.15875 -1.07916,0.35278 -0.1272,0.20582 0.23152,0.35278 0.86113,0.35278 0.59353,0 1.07915,-0.15875 1.07915,-0.35278 z m 6.26393,-0.0882 c -0.15464,-0.47076 -2.46813,-0.79569 -3.32477,-0.46697 -1.01325,0.38882 -0.0429,0.90795 1.69717,0.90795 1.26005,0 1.73059,-0.12749 1.6276,-0.44098 z m -2.73615,-3.43958 c 0,-0.19403 -0.15875,-0.35278 -0.35278,-0.35278 -0.19403,0 -0.35278,0.15875 -0.35278,0.35278 0,0.19403 0.15875,0.35278 0.35278,0.35278 0.19403,0 0.35278,-0.15875 0.35278,-0.35278 z m 6.23821,-8.88559 c -0.11262,-0.28142 -0.19621,-0.19783 -0.21314,0.21314 -0.0153,0.37188 0.0681,0.58024 0.18529,0.46302 0.11722,-0.11723 0.12975,-0.4215 0.0278,-0.67616 z m 7.0939,33.02417 c -0.1051,-0.17934 -0.21862,-4.86751 -0.25226,-10.41815 l -0.0612,-10.09207 1.65378,-0.22668 c 2.44049,-0.33451 18.84143,-0.27583 18.84143,0.0674 0,0.46665 -2.67045,3.2337 -3.12081,3.2337 -0.22384,0 -0.41256,0.19844 -0.41939,0.44097 -0.018,0.639 -16.41405,17.38308 -16.64158,16.99483 z m 62.43089,-7.0706 c -3.94047,-3.8576 -8.70853,-8.43464 -10.59569,-10.17122 -2.55473,-2.35087 -3.4312,-3.37914 -3.4312,-4.02548 0,-0.90836 1.57957,-2.59357 14.96142,-15.96202 3.47509,-3.47162 6.46538,-6.31204 6.64508,-6.31204 0.17969,0 1.71565,1.38906 3.41322,3.08681 1.69758,1.69774 4.89855,4.77819 7.11326,6.84544 10.72264,10.00869 11.74604,11.0566 11.40068,11.67373 -0.61662,1.10183 -20.86893,21.28467 -21.11302,21.04059 -0.0821,-0.0821 -0.25303,-9.43337 -0.3798,-20.78057 -0.12958,-11.59826 -0.3714,-20.77801 -0.55233,-20.96642 -0.43607,-0.45408 -0.4211,-0.89688 -0.32883,9.72935 0.0449,5.16681 -0.0135,9.69119 -0.12976,10.05417 -0.19693,0.61494 -0.74693,0.66619 -8.06299,0.75124 -10.08991,0.1173 -12.37843,0.2599 -12.5525,0.78212 -0.10617,0.31848 1.20899,0.36827 5.45548,0.20654 3.07746,-0.11721 7.77818,-0.28416 10.44607,-0.37101 l 4.85069,-0.15791 0.0118,1.31199 c 0.007,0.72159 0.0746,2.89949 0.15118,4.83977 0.23895,6.05059 0.27698,15.02341 0.0646,15.23582 -0.1116,0.1116 -3.42693,-2.9533 -7.36739,-6.8109 z m 9.84286,0.48272 c -0.0979,-0.24254 -0.17793,-0.0441 -0.17793,0.44097 0,0.48507 0.0801,0.68351 0.17793,0.44097 0.0979,-0.24253 0.0979,-0.63941 0,-0.88194 z m 6.11637,-3.79236 c 0,-0.19403 -0.16812,-0.35278 -0.3736,-0.35278 -0.20548,0 -0.27549,0.15875 -0.15557,0.35278 0.11991,0.19402 0.28803,0.35277 0.3736,0.35277 0.0856,0 0.15557,-0.15875 0.15557,-0.35277 z m -5.64445,-1.23473 c 0,-0.48507 -0.15875,-0.88194 -0.35278,-0.88194 -0.39411,0 -0.48355,1.16274 -0.11759,1.5287 0.38888,0.38888 0.47037,0.27684 0.47037,-0.64676 z m -10.72854,-0.79196 c -0.38537,-0.38538 -0.64963,0.22749 -0.37295,0.86494 0.26236,0.60444 0.28138,0.60389 0.42755,-0.0124 0.0841,-0.35474 0.0596,-0.73838 -0.0546,-0.85255 z m 12.84521,-9.57386 c 0,-0.41255 -1.53882,-0.69186 -2.64584,-0.48024 -1.52013,0.29059 -0.96181,0.7919 0.88195,0.7919 0.97014,0 1.76389,-0.14025 1.76389,-0.31166 z m 14.5004,-0.20945 c 1.42799,-0.14206 2.3241,-0.51523 1.3452,-0.56018 -1.31683,-0.0605 -10.84724,0.063 -11.70046,0.15154 -0.53358,0.0554 -1.48608,0.14432 -2.11667,0.19762 -1.10263,0.0932 -1.11276,0.10758 -0.26458,0.37589 0.83112,0.26292 9.5741,0.14974 12.73651,-0.16487 z m -8.51559,-4.39459 c 0.53157,-0.99325 0.45309,-1.1424 -0.34037,-0.64688 -0.72754,0.45435 -0.9679,1.32924 -0.36519,1.32924 0.1872,0 0.50471,-0.30706 0.70556,-0.68236 z m -128.18675,4.75543 c -0.16509,-0.65777 -0.26344,-8.62791 -0.22549,-18.27237 l 0.0135,-3.43959 h 0.92514 c 0.76538,0 0.85231,-0.0878 0.50337,-0.5082 -0.23197,-0.27951 -0.62664,-0.42957 -0.87704,-0.33348 -0.60982,0.234 -0.78142,-4.333581 -0.55147,-14.678821 l 0.17639,-7.93578 1.02795,-0.002 1.02796,-0.002 0.0304,22.815281 0.0304,22.81528 -0.94805,0.13913 c -0.73138,0.10734 -0.99032,-0.0293 -1.13305,-0.59801 z m 3.53717,0.32661 c -0.28264,-0.73655 -0.31923,-44.878121 -0.0376,-45.333851 0.11586,-0.18746 0.52815,-0.34083 0.9162,-0.34083 0.38806,0 0.60745,-0.15875 0.48753,-0.35278 -0.11992,-0.19403 -0.52616,-0.35278 -0.90277,-0.35278 -0.66307,0 -0.68473,-0.34602 -0.68473,-10.93611 v -10.93611 h 1.03751 c 0.57063,0 1.10869,0.11906 1.19568,0.26458 0.087,0.14552 0.21542,10.25256 0.2854,22.46009 0.10052,17.53369 0.0346,22.226401 -0.31373,22.342591 -0.5983,0.19957 -0.55869,1.02597 0.0606,1.2636 0.49875,0.19139 0.54158,1.36983 0.70734,19.4622 l 0.0259,2.82222 -1.27803,0.10682 c -0.92572,0.0774 -1.33901,-0.0521 -1.49923,-0.46964 z m 1.18976,-22.39135 c 0,-0.19402 -0.24749,-0.35277 -0.54998,-0.35277 -0.3025,0 -0.45188,0.15875 -0.33196,0.35277 0.11991,0.19403 0.36741,0.35278 0.54999,0.35278 0.18257,0 0.33195,-0.15875 0.33195,-0.35278 z m 3.26275,22.63202 c -0.26499,-0.16378 -0.44832,-5.83034 -0.58964,-18.22582 -0.1128,-9.893481 -0.29733,-25.250951 -0.41007,-34.127731 l -0.20498,-16.13958 h 1.39927 c 1.13762,0 1.43658,0.14264 1.59877,0.76285 0.10971,0.41958 0.20652,5.85677 0.21511,12.08265 0.0189,13.66864 0.27533,34.948831 0.56478,46.862141 0.11668,4.80219 0.0816,8.74219 -0.0779,8.75556 -0.15952,0.0134 -0.6997,0.079 -1.20041,0.14595 -0.5007,0.0669 -1.08342,0.0147 -1.29493,-0.11602 z m 0.7942,-22.63202 c 0.11991,-0.19402 0.0499,-0.35277 -0.15557,-0.35277 -0.20548,0 -0.3736,0.15875 -0.3736,0.35277 0,0.19403 0.07,0.35278 0.15557,0.35278 0.0856,0 0.25368,-0.15875 0.3736,-0.35278 z m 6.95692,22.64073 c -0.34808,-0.22661 -0.46922,-2.83144 -0.52917,-11.37911 l -0.0778,-11.08523 1.13442,-0.10964 c 0.93786,-0.0907 1.16892,0.0316 1.3335,0.70555 0.1095,0.44836 0.15463,5.5777 0.1003,11.39854 -0.0959,10.28058 -0.11896,10.58591 -0.80433,10.67355 -0.38806,0.0496 -0.90869,-0.042 -1.15697,-0.20366 z m 3.55984,-0.14985 c -0.15741,-0.24324 -0.34106,-5.4032 -0.4081,-11.46657 L 48.9687,104.38635 h 1.39305 1.39304 l 0.22815,2.69906 c 0.31642,3.74319 0.28727,19.45114 -0.0364,19.63274 -0.83313,0.4674 -2.19119,0.55566 -2.44782,0.15908 z m -7.29286,-0.53046 c -0.0963,-0.33955 -0.22602,-5.37986 -0.28835,-11.20069 -0.1045,-9.75894 -0.0669,-10.5798 0.4827,-10.5379 0.32781,0.025 0.68735,-0.19257 0.79899,-0.48349 0.14973,-0.39019 0.0198,-0.48101 -0.49556,-0.34625 -0.45607,0.11926 -0.75554,-0.0191 -0.86278,-0.39846 -0.0903,-0.31962 -0.27321,-10.542691 -0.40638,-22.717931 l -0.24212,-22.13681 h 1.09966 1.09966 l 0.058,7.67292 c 0.0319,4.2201 0.093,9.0737 0.13582,10.78577 0.0756,3.02267 0.052,3.12465 -0.81626,3.52024 l -0.89412,0.40739 0.84649,0.19943 0.8465,0.19945 0.22284,15.68309 c 0.12256,8.625711 0.33112,18.897791 0.46346,22.826851 l 0.24062,7.14375 h -1.05705 c -0.70485,0 -1.11536,-0.20569 -1.23208,-0.61736 z m 60.18791,-0.0185 -1.85209,-0.10663 v -10.86761 -10.86766 l 4.49792,-0.0558 c 2.47385,-0.0307 7.62432,-0.14172 11.44549,-0.24669 l 6.94757,-0.19085 0.19649,1.16681 c 0.10807,0.64175 0.23604,5.57053 0.28437,10.95284 0.0655,7.29731 -0.0187,9.82681 -0.33099,9.94642 -0.23037,0.0882 -3.24662,0.18154 -6.70277,0.20739 -3.45615,0.0259 -7.71266,0.0743 -9.45891,0.10775 -1.74625,0.0334 -4.00844,0.0128 -5.02708,-0.0459 z m 15.45516,-6.6046 c -0.34396,-1.15275 -0.41916,-1.12773 -0.5557,0.18484 -0.1099,1.05657 0.14673,1.58728 0.5652,1.16882 0.16985,-0.16986 0.16566,-0.76664 -0.009,-1.35366 z m -14.62939,-4.57566 c -0.126,-0.50204 -0.36821,-0.82682 -0.53823,-0.72175 -0.17002,0.10509 -0.12734,0.57626 0.0948,1.04707 0.5037,1.06733 0.74795,0.88812 0.44339,-0.32532 z m 1.55007,-1.50129 c 0.003,-0.24253 -0.15334,-0.44097 -0.34737,-0.44097 -0.19403,0 -0.35035,0.43656 -0.34738,0.97014 0.004,0.75598 0.0809,0.85332 0.34738,0.44097 0.18808,-0.29104 0.3444,-0.7276 0.34737,-0.97014 z m 8.23118,-6.65546 c -0.16409,-0.42763 -0.27145,-0.44814 -0.49048,-0.0937 -0.33071,0.53509 -0.0625,1.11276 0.38756,0.83463 0.17215,-0.10639 0.21846,-0.43979 0.10292,-0.74089 z m -59.73133,8.19149 v -11.07578 l 1.4993,0.13194 c 1.8479,0.16261 5.35291,0.15306 13.14098,-0.0358 3.4876,-0.0846 6.21866,-0.004 6.52639,0.1922 0.42601,0.27182 -0.14912,1.00871 -2.95048,3.78028 -1.9138,1.89345 -6.66937,6.7367 -10.56794,10.76278 -3.89857,4.02608 -7.21429,7.32014 -7.36828,7.32014 -0.15398,0 -0.27997,-4.9841 -0.27997,-11.07578 z m -34.83681,0.32281 c -5.48128,-5.48546 -9.9659695,-10.0726 -9.9659695,-10.19363 0,-0.12104 1.15094,-0.2359 2.5576395,-0.25524 4.20933,-0.0579 4.79103,-0.52326 0.97014,-0.77616 -1.84327,-0.122 -3.7354895,-0.22794 -4.2049395,-0.23541 -0.46944,-0.007 -0.94569,-0.10598 -1.05833,-0.2189 -0.28333,-0.28406 -0.33193,-13.192001 -0.0683,-18.137141 l 0.21629,-4.05694 5.2916695,-0.0776 c 2.91041,-0.0427 7.79197,-0.14682 10.84791,-0.23138 4.04905,-0.11204 5.5626,-0.0431 5.57967,0.25402 0.20078,3.497 -0.13483,22.341951 -0.40366,22.665871 -0.23352,0.28138 -0.23507,0.46932 -0.005,0.54996 0.42438,0.14843 0.91615,20.77765 0.494,20.72308 -0.15709,-0.0203 -4.77031,-4.52503 -10.2516,-10.01049 z m 9.04476,-10.97994 c 0.0754,-0.0658 -0.26425,-0.27218 -0.75481,-0.45869 -0.55442,-0.21079 -2.20818,-0.22251 -4.37045,-0.031 -1.91319,0.16947 -3.95478,0.2936 -4.53686,0.27586 -0.58208,-0.0178 -1.37583,0.0239 -1.76389,0.0926 -1.0552,0.1868 7.86338,0.53238 9.70139,0.37592 0.87313,-0.0743 1.64921,-0.18894 1.72462,-0.25471 z M 8.8194305,102.09325 c 0,-0.29104 -0.15875,-0.52917 -0.35278,-0.52917 -0.19403,0 -0.35278,0.23813 -0.35278,0.52917 0,0.29104 0.15875,0.52916 0.35278,0.52916 0.19403,0 0.35278,-0.23812 0.35278,-0.52916 z M 23.86973,99.006439 c -0.0979,-0.24253 -0.17793,-0.0441 -0.17793,0.44097 0,0.48507 0.0801,0.683511 0.17793,0.44098 0.0979,-0.24254 0.0979,-0.63941 0,-0.88195 z m 148.37245,26.312421 c -0.34021,-0.13719 -0.43869,-2.39445 -0.4259,-9.76173 0.0196,-11.29207 0.10128,-12.10137 1.24326,-12.31967 0.46313,-0.0885 0.89834,0.0347 0.9929,0.28112 0.22099,0.57588 -0.10945,21.35815 -0.34567,21.74036 -0.19713,0.31896 -0.76465,0.34218 -1.46459,0.0599 z m 3.2055,-0.21448 c -0.20907,-0.3383 -0.21087,-21.48239 -0.002,-21.64205 0.0336,-0.0257 0.41827,-0.15645 0.85483,-0.29065 l 0.79375,-0.24398 0.0746,9.19599 c 0.041,5.0578 0.0807,10.01125 0.0882,11.00767 0.0116,1.55535 -0.0971,1.85263 -0.76895,2.10115 -0.50763,0.18778 -0.87319,0.14277 -1.04062,-0.12813 z m 3.46762,0.13855 c -0.36946,-0.23419 -0.51403,-2.55445 -0.66458,-10.66613 -0.19037,-10.25763 -0.18447,-10.37392 0.56038,-11.03887 0.86682,-0.77385 0.9687,-1.26824 0.26135,-1.26824 -0.27028,0 -0.58778,-0.25111 -0.70555,-0.55802 -0.11778,-0.30691 -0.21413,-5.458401 -0.21413,-11.447751 0,-9.83307 0.0575,-10.92193 0.59287,-11.22152 1.41712,-0.79306 1.44592,-0.39903 1.68273,23.023281 0.24385,24.11729 0.23297,24.28396 -1.51307,23.17725 z m 3.34452,-0.10634 c -0.51772,-0.28973 -0.57928,-1.48441 -0.57928,-11.24276 v -10.91859 h 1.05834 c 0.59054,0 1.07569,0.19492 1.09759,0.44097 0.14575,1.63677 0.19759,3.94356 0.2676,11.90626 0.0435,4.9477 0.0716,9.17575 0.0625,9.39566 -0.0229,0.55224 -1.20439,0.81152 -1.90676,0.41846 z m 3.18352,-2.47541 c -0.17431,-2.05555 -0.36406,-16.0843 -0.25912,-19.15677 0.0186,-0.54405 0.26732,-0.70556 1.08665,-0.70556 0.65347,0 1.11093,0.20374 1.18821,0.52917 0.0691,0.29104 0.1069,5.29167 0.084,11.1125 l -0.0417,10.58334 -0.9198,0.10676 c -0.90025,0.1045 -0.92444,0.052 -1.13824,-2.46944 z m 3.29276,-8.74761 v -11.28668 l 0.79375,0.12084 0.79375,0.12083 0.17639,10.72487 c 0.097,5.89868 0.11972,10.92331 0.0505,11.16584 -0.0693,0.24254 -0.50583,0.44097 -0.97014,0.44097 h -0.8442 z m 3.14714,11.19848 c -0.0153,-0.0485 -0.11474,-5.02737 -0.22094,-11.06415 -0.20595,-11.70742 -0.20631,-11.70469 1.50357,-11.27554 l 0.8619,0.21632 v 11.10578 11.10578 h -1.05834 c -0.58208,0 -1.07086,-0.0397 -1.08619,-0.0882 z m -94.19447,-2.08464 c -1.05029,-1.00103 -4.05274,-3.89936 -6.67212,-6.44073 -2.61937,-2.54137 -6.31031,-6.03876 -8.20208,-7.77198 -1.89177,-1.73321 -3.43959,-3.25798 -3.43959,-3.38838 0,-0.40573 4.80901,-0.67925 12.52362,-0.71229 l 7.40833,-0.0317 0.24467,4.70273 c 0.3528,6.78088 0.49533,15.46351 0.25384,15.46293 -0.11388,-2.7e-4 -1.06638,-0.81951 -2.11667,-1.82054 z m -5.61379,-8.21329 c 0,-0.27959 -0.15875,-0.60646 -0.35277,-0.72638 -0.19403,-0.11991 -0.35278,0.10884 -0.35278,0.50835 0,0.39951 0.15875,0.72638 0.35278,0.72638 0.19402,0 0.35277,-0.22876 0.35277,-0.50835 z m -3.11032,-4.1542 c -0.25314,-0.25314 -0.41745,-0.27397 -0.41745,-0.0529 0,0.2005 0.10583,0.47037 0.23518,0.59972 0.12935,0.12936 0.31721,0.15317 0.41746,0.0529 0.10024,-0.10025 -0.006,-0.37012 -0.23519,-0.59972 z m 35.56588,3.94592 c 0,-7.87845 0.10175,-10.2761 0.44097,-10.39101 0.61741,-0.20914 20.37323,-0.39498 20.37306,-0.19164 -7e-5,0.0913 -3.86811,4.06005 -8.59563,8.81945 -4.72751,4.75939 -9.2721,9.4075 -10.09909,10.32913 -0.82699,0.92163 -1.64214,1.6757 -1.81146,1.6757 -0.16932,0 -0.30785,-4.60874 -0.30785,-10.24163 z m 4.58611,-3.16393 c 0,-0.19403 -0.07,-0.35278 -0.15556,-0.35278 -0.0856,0 -0.25369,0.15875 -0.3736,0.35278 -0.11992,0.19403 -0.0499,0.35278 0.15556,0.35278 0.20548,0 0.3736,-0.15875 0.3736,-0.35278 z m 37.88984,9.24797 c -2.77667,-2.66035 -7.08121,-6.7198 -15.41746,-14.53964 -3.27465,-3.07178 -3.1405,-2.46038 -3.34494,-15.244761 -0.16487,-10.30916 -0.13184,-11.21357 0.40951,-11.21357 0.32387,0 0.73869,-0.35719 0.92182,-0.79375 0.38819,-0.92538 20.70096,-21.66413 20.96274,-21.40235 0.13328,0.13328 0.31387,16.84781 0.22165,20.51467 -0.0141,0.56173 -0.69908,0.61448 -8.39385,0.64641 -11.06945,0.046 -12.25669,0.11522 -11.89883,0.69425 0.15241,0.2466 3.47388,0.28649 10.25138,0.12311 l 10.02592,-0.24168 -0.004,2.25814 c -0.002,1.24198 0.022,6.30627 0.054,11.25398 0.10505,16.238431 -0.045,31.044671 -0.31449,31.031991 -0.14552,-0.007 -1.70853,-1.39591 -3.47336,-3.0868 z m -0.38527,-17.26982 c 2.69231,-0.0966 3.77407,-0.25752 3.67755,-0.54707 -0.18076,-0.54229 -2.60106,-0.70782 -6.60989,-0.45207 -1.06716,0.0681 -3.28966,0.12398 -4.93889,0.1242 -5.09663,7.1e-4 -6.83294,0.0873 -8.11389,0.40472 -0.90768,0.22492 0.0734,0.32658 3.70417,0.38381 2.71638,0.0428 5.41513,0.2024 5.99722,0.35462 0.58208,0.15223 1.37583,0.18495 1.76389,0.0727 0.38805,-0.11224 2.42198,-0.26565 4.51984,-0.34092 z m -91.63968,0.33934 c -0.27499,-0.27122 -2.75593,-0.36197 -8.48294,-0.31029 -8.71388,0.0786 -12.97472,-0.0622 -13.20599,-0.43636 -0.13183,-0.2133 -0.26947,-5.230251 -0.30587,-11.148771 l -0.0662,-10.76096 2.55568,-0.0233 c 1.40564,-0.0128 3.90507,-0.0102 5.55431,0.006 1.64923,0.016 3.21818,-0.11501 3.48655,-0.29113 0.83647,-0.54896 -1.19004,-0.76493 -6.48516,-0.69116 l -4.93889,0.0688 -0.0936,-10.33551 -0.0936,-10.33551 1.32831,1.15421 c 0.98798,0.85849 14.95799,14.28527 19.3743,18.62092 0.26116,0.25639 0.47484,0.67444 0.47484,0.929 0,0.25455 0.3175,0.54585 0.70556,0.64733 0.66571,0.17409 0.70672,0.49016 0.72616,5.59739 0.0113,2.97709 0.10035,8.05662 0.19782,11.28785 0.16388,5.433021 0.004,6.747241 -0.73132,6.021701 z m -3.13403,-4.047351 c -0.0979,-0.24254 -0.17794,-0.0441 -0.17794,0.440971 0,0.48507 0.0801,0.68351 0.17794,0.44097 0.0979,-0.24253 0.0979,-0.639411 0,-0.881941 z m -2.81487,-2.80018 c -0.11262,-0.28142 -0.19621,-0.19783 -0.21314,0.21314 -0.0153,0.37189 0.0681,0.58025 0.18529,0.46302 0.11722,-0.11722 0.12975,-0.4215 0.0278,-0.67616 z m -9.87778,-1.76389 c -0.11261,-0.28142 -0.19621,-0.19783 -0.21314,0.21314 -0.0153,0.37189 0.0681,0.58025 0.18529,0.46302 0.11723,-0.11722 0.12976,-0.4215 0.0278,-0.67616 z m 2.11667,-10.58333 c -0.11262,-0.28142 -0.19621,-0.19783 -0.21314,0.21314 -0.0153,0.37188 0.0681,0.58024 0.18529,0.46302 0.11722,-0.11723 0.12975,-0.4215 0.0278,-0.67616 z m -3.77417,-0.7276 c -0.004,-0.61973 -0.0765,-0.68143 -0.3295,-0.28143 -0.17826,0.28178 -0.24583,0.63896 -0.15017,0.79375 0.30599,0.4951 0.48522,0.30366 0.47967,-0.51232 z m 14.11651,-2.9793 c 1.57632,-0.19427 1.77484,-0.28636 1.05834,-0.49093 -1.13624,-0.32441 -5.05835,-0.38952 -5.82156,-0.0966 -0.46874,0.17987 -0.49241,0.28582 -0.11705,0.52376 0.57068,0.36175 2.28139,0.38412 4.88027,0.0638 z m -12.08269,-5.60501 c -0.33618,-0.33618 -1.01017,0.20835 -0.75963,0.61373 0.14891,0.24094 0.34624,0.23486 0.59959,-0.0185 0.2077,-0.2077 0.27972,-0.47555 0.16004,-0.59523 z M 45.32502,103.31685 c -0.10895,-0.1763 -0.26854,-6.000601 -0.35464,-12.942881 -0.0861,-6.94229 -0.24628,-16.80346 -0.35597,-21.91371 -0.14687,-6.84195 -0.0904,-9.42271 0.21404,-9.78959 0.42725,-0.51481 2.41738,-0.70245 2.47793,-0.23363 0.0585,0.45309 0.0615,3.47315 0.0128,12.87639 l -0.047,9.08403 h -0.88195 c -0.48507,0 -0.88194,0.17596 -0.88194,0.39103 0,0.23466 0.33266,0.30752 0.83191,0.18222 0.82218,-0.20635 0.83418,-0.16863 1.025,3.22495 0.10619,1.88856 0.16839,7.00169 0.13822,11.36251 l -0.0549,7.928771 -0.96273,0.0752 c -0.5295,0.0414 -1.05188,-0.069 -1.16084,-0.24531 z m 3.58116,-1.84064 C 48.7836,100.30348 48.68332,95.239749 48.68332,90.223489 v -9.12047 h 1.37286 c 1.13417,0 1.40478,0.13801 1.55636,0.79375 0.10092,0.43656 0.15782,5.47687 0.12644,11.20069 l -0.0571,10.406951 -1.27644,0.052 -1.27644,0.052 z m 28.49472,1.71455 c -0.67539,-1.76006 0.48083,-1.94278 13.08658,-2.06811 l 8.81945,-0.0877 0.11806,0.83444 c 0.0649,0.45894 -0.0147,0.96726 -0.17708,1.12959 -0.16233,0.16233 -5.09525,0.39975 -10.96204,0.5276 -9.61735,0.20959 -10.68835,0.17654 -10.88497,-0.33583 z m 23.14075,-1.13946 v -1.19272 l 3.08681,-0.023 c 1.69774,-0.0127 6.85712,-0.10116 11.46528,-0.19669 l 8.37847,-0.1737 v 1.25503 1.25504 l -6.61458,0.0194 c -3.63803,0.0107 -8.7974,0.0711 -11.46528,0.13439 l -4.8507,0.11503 v -1.19272 z m 23.98889,-0.31564 v -1.22986 l 5.37986,-0.008 c 2.95893,-0.004 7.95388,-0.0366 11.09989,-0.0714 3.14602,-0.0349 5.82414,0.0407 5.9514,0.16798 0.12725,0.12726 0.13028,0.63413 0.007,1.12638 l -0.22464,0.89501 -6.96148,-0.0164 c -3.82882,-0.009 -8.8268,0.0697 -11.10663,0.17492 l -4.14514,0.19126 z m 47.56525,-11.525181 c -0.0329,-6.65834 -0.0726,-16.7892 -0.0882,-22.51302 l -0.0284,-10.40695 0.92016,-0.1068 0.92016,-0.1068 0.15323,5.75125 c 0.0843,3.16318 0.14645,13.29187 0.13817,22.50819 l -0.0151,16.756951 -0.97013,0.11162 -0.97014,0.11163 -0.0598,-12.106071 z m 1.11809,-11.22413 c 0,-0.19403 -0.15875,-0.35278 -0.35278,-0.35278 -0.19403,0 -0.35278,0.15875 -0.35278,0.35278 0,0.19403 0.15875,0.35278 0.35278,0.35278 0.19403,0 0.35278,-0.15875 0.35278,-0.35278 z m 2.05743,11.37709 c -0.0235,-6.54844 -0.10517,-16.62027 -0.18148,-22.38184 -0.13621,-10.28478 -0.12551,-10.48268 0.58744,-10.86424 0.39941,-0.21375 0.88166,-0.29256 1.07168,-0.17512 0.21963,0.13574 0.34548,8.43039 0.34548,22.77049 v 22.556961 h -0.8902 -0.8902 z m 6.54022,11.385981 c -0.0901,-0.23469 -0.19606,-5.412701 -0.23556,-11.506701 l -0.0718,-11.07998 h 1.05834 1.05833 l 0.17639,11.05892 c 0.097,6.08241 0.0633,11.241781 -0.075,11.465281 -0.33961,0.54905 -1.70685,0.59375 -1.91072,0.0625 z m 3.29542,0.0594 c -0.0984,-0.25639 -0.19781,-5.506591 -0.22094,-11.667091 l -0.042,-11.20094 1.15232,0.11098 1.15232,0.11098 0.0929,11.47807 0.0929,11.478081 -1.0243,0.0781 c -0.58572,0.0446 -1.10089,-0.12156 -1.20319,-0.38813 z m 4.26477,0.18569 c -0.90625,-0.18499 -1.03196,-1.98564 -0.91632,-13.126271 l 0.10431,-10.05007 0.88195,-0.004 0.88194,-0.004 0.0589,11.07288 c 0.0324,6.09009 -0.047,11.334121 -0.17639,11.653421 -0.12939,0.31929 -0.50484,0.5255 -0.83435,0.45824 z m 2.10831,-10.903891 c -0.0539,-5.97825 -0.0474,-11.22672 0.0146,-11.66329 0.0724,-0.5101 0.35609,-0.79375 0.79375,-0.79375 0.37456,0 0.68102,-0.16944 0.68102,-0.37655 0,-0.20827 -0.297,-0.28228 -0.66461,-0.16561 -0.88024,0.27938 -0.92973,-0.11609 -0.90349,-7.21895 0.0481,-13.02069 0.10236,-14.01465 0.77435,-14.18894 1.52074,-0.39442 1.51313,-0.45833 1.51311,12.72134 0,6.91906 0.0366,17.0251 0.0813,22.45788 l 0.0813,9.877781 -1.13663,0.10981 -1.13662,0.1098 -0.0981,-10.869521 z m -114.22171,8.0734 c 0,-0.72569 0.20257,-1.13851 0.61736,-1.25808 0.54259,-0.15641 18.09463,-0.38333 20.6375,-0.26681 0.77453,0.0355 0.97014,0.21398 0.97014,0.88526 0,0.50532 -0.24632,0.90389 -0.61736,0.99894 -0.33955,0.087 -4.10986,0.18665 -8.37848,0.22148 -4.26861,0.0348 -8.99142,0.16143 -10.49513,0.281331 l -2.73403,0.21799 z m 24.07708,0.34711 c -0.61693,-0.0876 -0.79375,-0.34303 -0.79375,-1.14652 v -1.0338 h 6.74944 c 3.71219,0 8.87156,-0.0825 11.46528,-0.18336 l 4.71584,-0.18335 v 1.04932 c 0,0.91129 -0.1508,1.07326 -1.14653,1.23142 -1.2956,0.20578 -19.76637,0.44012 -20.99028,0.26629 z m 23.34204,-0.38704 c -0.0808,-0.0808 -0.1469,-0.57931 -0.1469,-1.10772 v -0.96072 l 7.32014,-0.21747 c 4.02608,-0.11961 9.02486,-0.26793 11.1084,-0.3296 3.46382,-0.10253 3.80645,-0.0548 4.00061,0.5569 0.11679,0.36796 0.12543,1.01476 0.0192,1.43732 l -0.19312,0.76829 h -10.98072 c -6.0394,0 -11.04683,-0.0661 -11.12762,-0.147 z m -46.27259,-2.77755 c -0.93077,-0.0964 -1.14653,-0.27315 -1.14653,-0.9391 0,-1.11714 0.42558,-1.16769 12.25903,-1.45622 l 9.96597,-0.24299 v 1.28212 1.28212 l -8.37847,0.0396 c -4.60816,0.0218 -9.09285,0.0651 -9.96598,0.0964 -0.87312,0.0313 -2.10343,0.004 -2.73402,-0.0619 z m 22.04331,-0.74626 c -0.0847,-0.32386 -0.0358,-0.90832 0.10864,-1.2988 0.25471,-0.68854 0.60439,-0.71275 11.58902,-0.80226 l 11.32639,-0.0923 v 1.04333 1.04332 l -5.02708,0.20927 c -2.7649,0.1151 -7.91067,0.2716 -11.43504,0.34778 -5.75895,0.12447 -6.42354,0.0789 -6.56193,-0.45034 z m 23.94054,-0.89043 c -0.1033,-0.39505 -0.0727,-0.83344 0.0681,-0.97422 0.1935,-0.1935 15.68727,-0.40989 21.50496,-0.30033 0.63257,0.0119 0.79375,0.2176 0.79375,1.01292 v 0.99797 l -11.0895,-0.009 c -10.85442,-0.009 -11.09349,-0.0243 -11.27734,-0.7273 z m -46.68941,-1.82431 c -0.24253,-0.1098 -0.44097,-0.5673 -0.44097,-1.01666 0,-1.04503 0.42482,-1.08485 12.78819,-1.19884 l 9.43681,-0.087 v 0.90445 c 0,0.80949 -0.13888,0.90471 -1.32292,0.907 -0.7276,0.001 -2.83104,0.07 -4.6743,0.15252 -8.23799,0.36862 -15.38197,0.52181 -15.78681,0.33854 z m 22.90588,-1.4509 c 0.0785,-0.68396 0.30135,-0.96798 0.73244,-0.93364 0.34076,0.0272 4.86513,-0.0647 10.05416,-0.2042 10.90732,-0.29316 11.96718,-0.2286 12.27707,0.74779 0.12131,0.38222 0.13424,0.78127 0.0287,0.88678 -0.10551,0.10551 -5.36986,0.25808 -11.69855,0.33905 l -11.50672,0.14722 0.11287,-0.983 z m 23.76596,0.63197 c -0.14288,-0.23119 -0.16244,-0.8082 -0.0435,-1.28224 l 0.21632,-0.8619 8.98912,-0.0756 c 4.94401,-0.0416 9.90192,-0.0813 11.01758,-0.0882 l 2.02847,-0.0126 0.11055,1.14653 0.11055,1.14652 h -8.4358 c -4.63968,0 -9.62778,0.10076 -11.08466,0.22392 -1.88078,0.15898 -2.7242,0.10202 -2.90866,-0.19645 z m -47.11281,-2.93855 c 0,-0.71288 1.7653,-0.91089 11.81805,-1.32559 11.29088,-0.46578 10.40695,-0.51101 10.40695,0.5325 0,0.80135 -0.13701,0.88256 -1.49931,0.88862 -0.82462,0.004 -5.82524,0.10414 -11.1125,0.22327 -8.45476,0.1905 -9.61319,0.15208 -9.61319,-0.3188 z m 23.28333,-0.73596 c 0,-0.8248 0.0255,-0.82967 5.55625,-1.05905 3.05594,-0.12675 8.21531,-0.23098 11.46528,-0.23162 l 5.90903,-10e-4 v 0.88195 c 0,0.81704 -0.1233,0.88189 -1.6757,0.88131 -0.92163,-3.5e-4 -6.081,0.0799 -11.46527,0.17828 l -9.78959,0.17891 z m 23.74215,-0.11325 c -0.47375,-1.23457 0.42938,-1.35275 11.24264,-1.47113 6.60883,-0.0724 10.73892,0.014 10.95397,0.22907 0.18987,0.18987 0.25144,0.63901 0.13682,0.99809 -0.19638,0.61522 -0.84059,0.65609 -11.17106,0.70865 -9.37313,0.0477 -10.99161,-0.0197 -11.16237,-0.46468 z m -47.02548,-2.33016 v -1.20773 l 5.34775,-0.23146 c 2.94127,-0.12731 7.9419,-0.23147 11.1125,-0.23147 h 5.76475 v 0.86596 c 0,0.69963 -0.22267,0.90773 -1.15936,1.08345 -0.63764,0.11963 -1.31233,0.17745 -1.4993,0.1285 -0.4852,-0.12702 -14.72552,0.36796 -17.36148,0.60348 l -2.20486,0.19699 z m 23.22512,-0.0826 c -0.11981,-0.1198 -0.14135,-0.51026 -0.0479,-0.86768 0.22759,-0.87032 1.5992,-1.01784 9.80749,-1.05483 3.68653,-0.0166 7.76489,-0.12649 9.06303,-0.24418 3.12143,-0.28298 4.16614,-0.009 4.16614,1.09072 0,0.51798 -0.2418,0.91082 -0.61736,1.00303 -0.99248,0.24369 -22.13175,0.31261 -22.37141,0.0729 z m 23.82919,-0.68712 c -0.11569,-0.3015 -0.11898,-0.78631 -0.007,-1.07735 0.17259,-0.44976 1.51499,-0.53277 8.94539,-0.55318 4.80827,-0.0132 9.72133,-0.0826 10.9179,-0.15431 1.6554,-0.0992 2.22212,-0.009 2.37018,0.37679 0.15488,0.4036 -0.0163,1.44645 -0.26198,1.59616 -0.0277,0.0169 -4.93371,0.10485 -10.90214,0.19541 -9.5869,0.14547 -10.87621,0.10077 -11.06205,-0.38352 z m -46.82187,-1.84445 c -0.12784,-0.12784 -0.23244,-0.50363 -0.23244,-0.8351 0,-0.83874 0.98439,-0.96388 7.9375,-1.00908 3.29847,-0.0215 7.86253,-0.13985 10.14236,-0.26314 l 4.14514,-0.22414 v 0.93192 c 0,0.51255 -0.0397,0.93739 -0.0882,0.94408 -0.0485,0.007 -3.8982,0.0864 -8.55486,0.17708 -4.65667,0.0907 -9.51301,0.24274 -10.79187,0.33787 -1.27886,0.0951 -2.4298,0.0683 -2.55764,-0.0595 z m 23.05089,-1.30667 c 0,-0.80657 0.14663,-0.92588 1.14653,-0.93293 0.63059,-0.004 5.78997,-0.10462 11.46528,-0.22261 l 10.31875,-0.21452 v 0.92817 c 0,0.72453 -0.17415,0.93025 -0.79375,0.9377 -0.43656,0.005 -5.59594,0.10392 -11.46528,0.21928 l -10.67153,0.20975 z m 23.74314,-0.0964 c -0.11039,-0.28768 -0.0489,-0.67482 0.13654,-0.86031 0.46841,-0.46841 22.0573,-0.60888 22.20815,-0.14449 0.33634,1.03542 -0.60824,1.14734 -11.27354,1.33578 -9.40161,0.16612 -10.89755,0.1214 -11.07115,-0.33098 z M 8.4666505,80.262319 c 0,-0.22748 0.27781,-0.65729 0.61736,-0.95512 1.1907795,-1.04446 12.3576695,-12.86993 14.4610695,-15.31391 2.41865,-2.81028 4.60122,-4.96303 4.80402,-4.73839 0.0756,0.0837 0.19705,4.83341 0.26987,10.55479 l 0.1324,10.40252 -1.0216,0.18082 c -0.56188,0.0994 -4.61,0.10145 -8.99583,0.004 -4.38583,-0.097 -8.49017,-0.074 -9.1207595,0.051 -0.77091,0.15292 -1.14653,0.0919 -1.14653,-0.18619 z M 29.98609,72.712899 c 0,-4.2511 -0.10134,-9.15699 -0.2252,-10.90199 -0.24683,-3.47732 -0.0235,-3.8914 1.84578,-3.42224 l 0.85895,0.21558 -0.0932,10.80841 -0.0932,10.80841 -1.14653,0.11055 -1.14652,0.11055 z m 19.42089,7.26945 c -0.70762,-0.26177 -0.72366,-0.50183 -0.72366,-10.82467 0,-11.40796 -0.0679,-11.03531 1.94027,-10.65078 l 1.05834,0.20265 -0.0875,10.2266 c -0.0481,5.62463 -0.0878,10.49454 -0.0882,10.82203 -7.1e-4,0.62579 -0.78666,0.70971 -2.09923,0.22417 z m 27.85134,0.14573 c 0,-0.31488 8.96294,-9.23985 17.86883,-17.79313 l 4.29797,-4.1278 12.23905,-0.0256 12.23905,-0.0256 3.22408,3.11106 c 1.77324,1.71109 5.52595,5.26794 8.33935,7.90413 2.81341,2.63618 6.22653,5.84055 7.58473,7.12082 1.35819,1.28026 2.5885,2.33087 2.73402,2.33467 0.14552,0.004 0.26459,0.16871 0.26459,0.36645 0,0.23721 -3.72082,0.34776 -10.93611,0.32491 l -10.93612,-0.0346 v -2.61797 c 0,-1.51012 -0.14928,-2.61796 -0.35277,-2.61796 -0.20383,0 -0.35278,1.11713 -0.35278,2.64583 v 2.64584 l -2.02847,0.0529 c -1.11566,0.0291 -4.33035,0.0866 -7.14375,0.12785 -2.81341,0.0412 -6.98207,0.12179 -9.26371,0.17902 -2.28164,0.0572 -4.25972,-0.007 -4.39574,-0.14326 -0.13602,-0.13602 -0.27671,-3.93131 -0.31265,-8.43398 -0.0932,-11.68033 -0.10194,-11.89085 -0.49198,-11.89085 -0.22823,0 -0.33931,3.62269 -0.31431,10.25088 0.0213,5.63799 -0.0183,10.30073 -0.088,10.36166 -0.33871,0.29621 -22.17528,0.57662 -22.17528,0.28475 z m 46.91944,-8.74727 c 0,-0.86168 -0.15875,-1.56668 -0.35277,-1.56668 -0.19403,0 -0.35278,0.80312 -0.35278,1.78471 0,1.09997 0.13535,1.70105 0.35278,1.56668 0.19402,-0.11992 0.35277,-0.92304 0.35277,-1.78471 z m 0,-2.62501 c 0,-0.19403 -0.15875,-0.35278 -0.35277,-0.35278 -0.19403,0 -0.35278,0.15875 -0.35278,0.35278 0,0.19402 0.15875,0.35277 0.35278,0.35277 0.19402,0 0.35277,-0.15875 0.35277,-0.35277 z M 96.6611,67.274129 c 0,-0.56989 -0.10432,-0.67179 -0.3926,-0.38352 -0.21592,0.21593 -0.28593,0.56518 -0.15557,0.77611 0.36491,0.59044 0.54817,0.45919 0.54817,-0.39259 z m 27.48177,-5.64127 c 0.0192,-1.10421 -0.10603,-2.09475 -0.27828,-2.2012 -0.37752,-0.23332 -0.65039,3.91776 -0.41725,6.34764 l 0.16712,1.74177 0.24676,-1.94028 c 0.13572,-1.06715 0.26247,-2.84372 0.28165,-3.94793 z M 6.6350005,69.632549 c -0.0373,-5.42992 -0.0391,-10.26947 -0.004,-10.75454 0.035,-0.48507 0.0539,-1.04069 0.0419,-1.23472 -0.22819,-3.70661 -0.29723,-20.097514 -0.0855,-20.306281 0.16055,-0.158323 4.7900495,4.107695 10.2877895,9.480041 5.49774,5.37235 9.8766,9.88697 9.73079,10.03249 -0.14581,0.14552 -3.37396,0.26701 -7.17367,0.26999 -3.85089,0.003 -7.14277,0.15675 -7.43773,0.34737 -0.50816,0.3284 6.09658,0.62317 9.17222,0.40935 2.17843,-0.15144 4.93889,0.30764 4.93889,0.82136 0,0.26091 -0.13279,0.5273 -0.2951,0.59198 -0.1623,0.0647 -3.91333,4.00697 -8.33563,8.76065 -4.4223,4.75368 -8.6551295,9.27572 -9.4062895,10.04898 l -1.36576,1.40592 z M 10.73528,57.427389 c -0.25617,-0.4145 -2.5236595,-0.40405 -2.7812995,0.0128 -0.11084,0.17934 0.0782,0.38207 0.42016,0.4505 0.97869,0.19587 2.5749595,-0.11735 2.3611395,-0.46331 z m 57.15771,14.05425 c -4.08378,-3.92456 -8.82089,-8.4488 -10.52691,-10.05387 -3.00698,-2.82904 -3.09063,-2.95047 -2.73511,-3.97031 0.36615,-1.05035 20.6937,-21.862782 21.35342,-21.862782 0.36436,0 2.56878,2.101893 13.94499,13.296352 4.17828,4.11154 7.5159,7.55651 7.41691,7.65549 -0.1729,0.17291 -10.03233,0.49095 -16.82478,0.54273 -1.79475,0.0137 -3.26319,0.15803 -3.26319,0.32077 0,0.16275 4.36563,0.28181 9.70141,0.26459 6.33461,-0.0205 9.70141,0.0927 9.70139,0.32596 -3e-5,0.41833 -19.38678,19.70829 -19.59645,19.49862 -0.0779,-0.0779 -0.23295,-9.01104 -0.34451,-19.85136 -0.11252,-10.93307 -0.34726,-19.95654 -0.52717,-20.264057 -0.43649,-0.74609 -0.41531,-1.774285 -0.32648,15.849797 0.0717,14.21448 0.0751,24.50058 0.008,25.13542 -0.0153,0.14552 -0.14684,0.2609 -0.29236,0.2564 -0.14552,-0.005 -3.60585,-3.21919 -7.68963,-7.14375 z m -8.87452,-14.21567 c -1.29475,-0.45406 -1.63044,-0.45557 -2.64583,-0.0119 -1.14725,0.50124 -1.12725,0.50825 1.4829,0.52003 l 2.64583,0.0119 z m 14.71207,0.16167 c 0,-0.169 -1.62719,-0.30837 -3.61597,-0.30971 -1.98879,-10e-4 -3.8541,-0.0277 -4.14514,-0.0587 -1.49784,-0.15926 -3.88056,0.10052 -3.88056,0.42308 0,0.2432 1.97611,0.34857 5.82084,0.3104 3.20145,-0.0318 5.82083,-0.19607 5.82083,-0.36507 z m 1.05833,0.0393 c 0,-0.19402 -0.16812,-0.35277 -0.3736,-0.35277 -0.20547,0 -0.27548,0.15875 -0.15556,0.35277 0.11991,0.19403 0.28803,0.35278 0.3736,0.35278 0.0856,0 0.15556,-0.15875 0.15556,-0.35278 z m 72.31945,20.49477 c 0,-0.25587 -12.55494,-12.1176 -20.10622,-18.99607 -0.87196,-0.79427 -1.50696,-1.51483 -1.41111,-1.60125 0.0958,-0.0864 4.88717,-0.24538 10.64738,-0.35323 l 10.47311,-0.1961 0.18914,1.82525 c 0.10402,1.00388 0.26113,5.55587 0.34912,10.11553 0.088,4.55965 0.26791,8.56809 0.39981,8.90763 0.14007,0.3606 0.0774,0.61737 -0.15071,0.61737 -0.21479,0 -0.39052,-0.14361 -0.39052,-0.31913 z m 31.29451,0.0988 c -0.13754,-0.13753 -0.25006,-4.91172 -0.25006,-10.60928 0,-9.2876 0.06,-10.38226 0.58018,-10.58186 1.22848,-0.47142 1.36009,0.59713 1.36009,11.04265 0,9.99205 -0.0141,10.19443 -0.72007,10.29548 -0.39604,0.0567 -0.8326,-0.009 -0.97014,-0.14699 z m 3.1363,-0.0387 c -0.11625,-0.11625 -0.21136,-4.94741 -0.21136,-10.7359 v -10.52452 h 1.05161 c 0.80984,0 1.08695,0.18249 1.2053,0.79375 0.0845,0.43656 0.12725,5.23514 0.0949,10.66352 l -0.0588,9.86976 -0.93517,0.0724 c -0.51434,0.0398 -1.03027,-0.0227 -1.14652,-0.13898 z m 3.50406,-0.0756 c -0.11752,-0.19017 -0.29289,-16.30313 -0.21617,-19.86198 0.0261,-1.21161 0.11286,-1.32291 1.03086,-1.32291 h 1.00234 l 0.23146,7.14375 c 0.2981,9.20065 0.28696,13.40602 -0.0367,13.84653 -0.2871,0.39078 -1.80011,0.53714 -2.01181,0.19461 z m 3.46748,-0.0976 c -0.0955,-0.15452 -0.20291,-4.92269 -0.23868,-10.59594 l -0.0651,-10.31499 0.93986,-0.10871 c 0.66487,-0.0769 0.99193,0.0779 1.11785,0.52917 0.14759,0.52892 0.0841,19.24439 -0.0692,20.40603 -0.0564,0.42745 -1.43023,0.4963 -1.68477,0.0844 z m -40.69679,-10.63483 v -10.3615 l 3.43958,-0.22714 c 1.89177,-0.12493 5.81988,-0.24681 8.72913,-0.27086 2.90925,-0.024 6.08425,-0.16059 7.05555,-0.30346 l 1.76601,-0.25975 -2.11666,-0.074 c -4.19237,-0.14653 -17.27128,-0.0103 -17.89086,0.18634 -0.36034,0.11437 -0.70858,3.5e-4 -0.80771,-0.26425 -0.22523,-0.60137 -0.45924,-7.42448 -0.49761,-14.509031 -0.0196,-3.620845 -0.15395,-5.500593 -0.38299,-5.359041 -0.22177,0.137061 -0.35278,3.933822 -0.35278,10.223792 v 10.00576 l -5.63013,-0.002 c -3.09657,-10e-4 -5.78148,0.0915 -5.96646,0.20578 -0.18498,0.11433 -2.1758,0.26312 -4.42403,0.33065 -3.33009,0.10002 -4.08771,0.0311 -4.08771,-0.37191 0,-0.46559 1.22902,-1.80373 11.28467,-12.286547 8.60046,-8.965827 8.69057,-9.049125 9.65508,-8.925917 0.61828,0.07898 3.69047,2.826212 9.82369,8.784622 4.90823,4.768342 9.60563,9.277722 10.43867,10.020852 0.83303,0.74312 1.46803,1.55928 1.41111,1.81369 -0.0569,0.25441 -3.52574,4.00003 -7.70847,8.32361 -4.18273,4.32357 -8.8537,9.17073 -10.37993,10.77146 -1.52622,1.60073 -2.90617,2.91042 -3.06655,2.91042 -0.16038,3e-5 -0.2916,-4.66264 -0.2916,-10.36147 z m 8.46666,-17.66352 c 0,-1.71032 -0.42501,-2.71201 -0.93451,-2.20251 -0.29595,0.29596 0.28174,4.12197 0.62238,4.12197 0.17167,0 0.31213,-0.86376 0.31213,-1.91946 z m -1.32443,0.77293 c 0.20131,-0.54743 -0.0494,-1.32292 -0.42771,-1.32292 -0.3479,0 -0.71487,1.29595 -0.44375,1.56708 0.32702,0.32701 0.69983,0.22257 0.87146,-0.24416 z m 2.73554,-1.85208 c 0,-0.54877 -0.1999,-0.88195 -0.52916,-0.88195 -0.56937,0 -0.65378,0.32311 -0.31504,1.20587 0.32957,0.85884 0.8442,0.66137 0.8442,-0.32392 z m -127.50879,7.85442 c -0.21175,-0.6855 -0.50513,-20.847627 -0.31061,-21.34612 0.1316,-0.337245 2.69715,-0.436111 11.0755,-0.426812 l 10.90423,0.0121 0.17321,0.779593 c 0.0953,0.428773 0.13637,5.38334 0.0914,11.010149 l -0.0818,10.23055 -10.85703,0.0933 c -8.50917,0.0731 -10.88683,-0.003 -10.99482,-0.35277 z m 16.272,-4.56918 c -0.11262,-0.28142 -0.19621,-0.19783 -0.21314,0.21314 -0.0153,0.37188 0.0681,0.58024 0.18529,0.46302 0.11722,-0.11723 0.12976,-0.4215 0.0278,-0.67616 z m 57.31514,4.54015 c -0.21165,-0.25503 -0.37362,-4.41372 -0.40793,-10.47418 -0.0753,-13.308841 -0.13045,-12.312801 0.66951,-12.103604 0.39734,0.103904 0.75446,0.608355 0.88195,1.245793 0.11783,0.589149 0.21423,5.638105 0.21423,11.219901 0,8.46453 -0.0835,10.18077 -0.50337,10.34187 -0.27685,0.10624 -0.66133,0.003 -0.85439,-0.22978 z m -3.38219,-0.20419 c -0.23973,-0.3879 -0.19044,-20.634688 0.0527,-21.64412 0.16992,-0.705495 1.37283,-0.841272 1.56271,-0.176389 0.0693,0.242535 0.12594,5.282848 0.12594,11.200696 0,10.749983 -7.1e-4,10.759823 -0.76046,10.868093 -0.41826,0.0596 -0.85966,-0.0521 -0.98089,-0.24828 z m 6.00604,0.0142 c -0.14823,-0.23984 -0.27726,-12.513105 -0.21843,-20.776442 0.01,-1.335571 0.10122,-1.499306 0.8398,-1.499306 0.79322,0 0.83904,0.139788 1.05833,3.229194 0.12607,1.77606 0.22921,6.85606 0.22921,11.288894 v 8.05971 h -0.86112 c -0.47362,0 -0.94513,-0.13592 -1.04779,-0.30204 z m 3.17906,-0.26201 c -0.12635,-0.32928 -0.21364,-4.8571 -0.19397,-10.06182 0.0196,-5.204721 -0.0706,-9.635254 -0.20065,-9.84563 -0.13002,-0.210375 -0.13646,-0.780658 -0.0143,-1.267294 0.16646,-0.663226 0.41773,-0.856979 1.00336,-0.773702 l 0.78127,0.111111 v 11.107668 c 0,9.970437 -0.0587,11.118967 -0.57297,11.218017 -0.31514,0.0607 -0.67636,-0.15906 -0.80271,-0.48834 z m 2.77051,0.11963 c -0.0938,-0.24443 -0.12851,-5.36412 -0.0771,-11.377088 0.0854,-9.997444 0.14395,-10.924326 0.68417,-10.835119 0.32492,0.05365 0.69148,-0.06541 0.81457,-0.264583 0.13044,-0.211046 -0.14701,-0.362119 -0.66508,-0.362119 h -0.8889 L 112.109,21.571759 c -0.0561,-6.35441 0.028,-11.8414334 0.18699,-12.1933844 0.17066,-0.377789 0.13232,-0.82878 -0.0936,-1.100988 -0.26071,-0.314149 -0.35283,-3.763792 -0.28906,-10.825367 l 0.0936,-10.3642906 1.14653,-0.110546 1.14652,-0.110546 0.0643,8.4008236 c 0.10434,13.635731 0.12228,16.5544514 0.23806,38.7397164 0.0607,11.641672 0.097,21.444482 0.0804,21.784032 -0.0358,0.73701 -2.06533,0.88705 -2.33936,0.17294 z m 1.4274,-47.1805784 c 0.11992,-0.194028 0.0499,-0.352778 -0.15557,-0.352778 -0.20548,0 -0.3736,0.15875 -0.3736,0.352778 0,0.194028 0.07,0.352778 0.15557,0.352778 0.0856,0 0.25368,-0.15875 0.3736,-0.352778 z m 2.21805,41.0104184 c -0.16506,-5.970082 -0.43959,-40.3483974 -0.45002,-56.3562504 l -0.004,-6.3499996 1.01311,-0.115774 c 0.55722,-0.06368 1.14862,0.01972 1.31422,0.185329 0.38704,0.387032 0.45629,2.9301706 0.36317,13.33600057 -0.0417,4.65666703 0.0313,19.14260643 0.16219,32.19097543 l 0.23792,23.724309 h -1.22679 -1.2268 l -0.18289,-6.61459 z m 3.92173,6.54769 c -0.0186,-0.0602 -0.10257,-5.15322 -0.18659,-11.31778 l -0.15277,-11.208291 0.80396,-0.322823 c 0.78097,-0.313592 0.74949,-0.40827 -0.16619,-0.499837 -0.59923,-0.05992 -0.79375,-3.65432 -0.79375,-14.667595 V 9.3462886 l 0.88195,-0.232805 c 0.83004,-0.219103 0.84042,-0.24972 0.17639,-0.520215 -0.38806,-0.158076 -0.82219,-0.45774 -0.96474,-0.66592 -0.36154,-0.528004 -0.32653,-20.0278426 0.037,-20.6012096 0.17551,-0.276824 0.76491,-0.420549 1.44671,-0.352778 l 1.15054,0.114365 0.14145,22.7295966 c 0.11229,18.0434424 0.0496,22.7863424 -0.30387,23.0048254 -0.33975,0.209973 -0.29807,0.383067 0.17581,0.730123 0.57377,0.420218 0.61399,1.302208 0.52745,11.567404 l -0.0937,11.112504 -1.32291,0.10949 c -0.72761,0.0602 -1.33814,0.0602 -1.35675,0 z M 21.42564,48.912029 C 17.42038,44.982967 12.5492,40.260154 10.60079,38.41689 l -3.5425495,-3.351389 1.85073,-0.188423 c 1.0179,-0.103632 5.8988595,-0.183007 10.8465695,-0.176389 l 8.99583,0.01203 0.0598,5.820834 c 0.0827,8.045396 0.36194,14.710216 0.63496,15.151966 0.12586,0.20364 0.0112,0.37026 -0.25468,0.37026 -0.26593,0 -3.76054,-3.21469 -7.7658,-7.14375 z m 31.70589,6.85325 c -0.28292,-0.45777 -0.31306,-20.895549 -0.0312,-21.177528 0.12523,-0.125292 0.96857,-0.253136 1.8741,-0.284095 3.98758,-0.136324 19.19404,-0.15257 19.32597,-0.02064 0.18453,0.184535 -17.51925,17.892203 -17.88829,17.892203 -0.15009,0 -0.36882,0.27782 -0.48606,0.61736 -0.33364,0.96629 -2.56653,3.34156 -2.7945,2.9727 z m 70.92134,-5.61853 c -0.12268,-3.05594 -0.32417,-13.533436 -0.44774,-23.283333 l -0.22467,-17.7270844 2.60351,-0.02224 c 5.56523,-0.04755 8.40034,-0.188933 8.6424,-0.430993 0.2732,-0.273201 -0.40143,-0.322866 -5.50972,-0.405617 -1.84326,-0.02986 -3.78137,0.05882 -4.3069,0.197072 -0.73056,0.192186 -0.9959,0.112807 -1.12708,-0.337178 -0.0944,-0.323698 -0.21919,-5.033542 -0.27739,-10.46632 -0.0753,-7.027248 0.006,-9.8777786 0.28317,-9.8777786 0.21396,0 1.24502,0.776767 2.29125,1.726149 2.22453,2.0186096 8.7791,8.1126116 10.76782,10.01118457 0.75784,0.723495 3.12123,2.97927403 5.25199,5.01284303 l 3.87409,3.697398 -0.11745,12.3539924 c -0.12596,13.250002 -0.0622,12.789275 -2.05943,14.872163 -0.54897,0.572502 -2.82375,2.943867 -5.05507,5.269703 -8.01411,8.353579 -11.4869,12.013949 -12.78727,13.477949 -0.7271,0.81859 -1.3797,1.48835 -1.45022,1.48835 -0.0705,0 -0.2286,-2.50032 -0.35129,-5.55625 z m 1.36914,-17.006121 c -0.11468,-0.185554 -0.44155,-0.247942 -0.72638,-0.138645 -0.72923,0.279834 -0.6433,0.476017 0.20851,0.476017 0.39951,0 0.63255,-0.151818 0.51787,-0.337372 z m 3.16548,-0.01541 c -0.11992,-0.194028 -0.59617,-0.352778 -1.05834,-0.352778 -0.46216,0 -0.93841,0.15875 -1.05833,0.352778 -0.13001,0.210354 0.29726,0.352777 1.05833,0.352777 0.76108,0 1.18834,-0.142423 1.05834,-0.352777 z m 8.54097,-0.221393 c 0.19774,-0.595503 -6.77444,-0.451887 -7.37681,0.151952 -0.37681,0.377726 0.22838,0.440648 3.39306,0.352778 2.45708,-0.06823 3.89948,-0.250974 3.98375,-0.50473 z m 4.6326,-0.177768 c -0.60357,-0.221111 -1.35759,-0.222522 -2.11667,-0.004 -1.08101,0.311246 -1.003,0.339824 0.93754,0.343458 1.777,0.0032 1.96622,-0.05115 1.17913,-0.339492 z m -9.11663,-18.495272 c 0,-0.302493 -0.15875,-0.451874 -0.35278,-0.331958 -0.19402,0.119916 -0.35277,0.36741 -0.35277,0.549988 0,0.182576 0.15875,0.331957 0.35277,0.331957 0.19403,0 0.35278,-0.247495 0.35278,-0.549987 z m 4.87152,-5.4424194 c 0.25398,-0.0026 0.38268,-0.132815 0.28599,-0.289257 -0.0967,-0.156442 -0.73978,-0.218597 -1.4291,-0.138123 -0.69801,0.08149 -1.15877,0.299282 -1.03993,0.491562 0.11735,0.189885 0.55264,0.254208 0.96731,0.14294 0.41466,-0.111268 0.96174,-0.204473 1.21573,-0.207122 z m 5.94161,-0.245388 c -0.36511,-0.36511 -4.81591,-0.432917 -4.81591,-0.07337 0,0.172667 1.13771,0.31394 2.52825,0.31394 1.39053,0 2.41998,-0.108257 2.28766,-0.24057 z m 27.8725,42.3209914 c -0.12649,-2.48027 -0.23063,-7.390057 -0.23142,-10.910638 l -10e-4,-6.401051 5.37986,-0.216235 c 12.02541,-0.483338 15.16907,-0.555008 15.93315,-0.363234 l 0.8009,0.201012 0.21713,10.470837 c 0.16508,7.961179 0.11498,10.568629 -0.20904,10.878839 -0.29215,0.2797 -3.76475,0.47752 -11.04266,0.62903 l -10.6165,0.22103 z m -79.7861,-2.84323 C 87.66238,44.193831 83.00562,39.713348 81.1956,38.064112 79.38557,36.414876 77.64016,34.509875 77.3169,33.830778 76.79396,32.732203 76.7486,31.341747 76.90554,21.220813 L 77.08193,9.8455696 87.82788,-0.91599543 C 93.73815,-6.8348554 98.69909,-11.677559 98.85218,-11.677559 c 0.1531,0 0.27836,4.4255616 0.27836,9.8345826 0,7.456203 -0.10664,9.914515 -0.44097,10.165104 -0.24254,0.181786 -1.6316,0.373338 -3.08681,0.425671 -1.45521,0.05233 -2.80458,0.25661 -2.99861,0.45395 -0.23886,0.24294 0.69736,0.312757 2.89935,0.216212 2.54383,-0.111534 3.29296,-0.03619 3.43959,0.34591 0.10309,0.2686754 0.18745,5.6348914 0.18745,11.9249274 v 11.436425 l -3.61597,0.01263 c -1.98879,0.007 -4.56847,0.08139 -5.73264,0.165446 -1.16417,0.08405 -4.20819,0.153631 -6.7645,0.154615 -3.01075,0.0011 -4.73269,0.139104 -4.88876,0.391633 -0.17446,0.282272 2.68992,0.357801 10.3807,0.273734 l 10.62163,-0.116106 -2.3e-4,10.49514 c -1.3e-4,5.772324 -0.11929,10.490934 -0.26481,10.485794 -0.14552,-0.005 -3.44042,-3.14046 -7.322,-6.96736 z m 2.88133,-32.269823 c -0.0979,-0.242535 -0.17794,-0.0441 -0.17794,0.440972 0,0.485069 0.0801,0.683507 0.17794,0.440972 0.0979,-0.242535 0.0979,-0.63941 0,-0.881944 z m 2.23581,-2.381251 c 0,-0.194027 -0.16812,-0.352777 -0.3736,-0.352777 -0.20548,0 -0.27549,0.15875 -0.15557,0.352777 0.11992,0.194028 0.28804,0.352778 0.3736,0.352778 0.0856,0 0.15557,-0.15875 0.15557,-0.352778 z M 88.47983,9.5110526 c 1.22413,-0.01207 2.13777,-0.164197 2.03031,-0.338061 -0.2546,-0.411955 -10.49525,-0.05582 -10.95877,0.381106 -0.22158,0.208871 0.95919,0.266782 3.175,0.15572 1.94028,-0.09725 4.52934,-0.186696 5.75346,-0.198765 z m 74.45979,37.2712964 c -3.80758,-3.727878 -8.25258,-8.009461 -9.87778,-9.514626 -2.38841,-2.212009 -2.85346,-2.80276 -2.42574,-3.081405 0.29104,-0.189604 2.67229,-0.351303 5.29167,-0.359332 2.61937,-0.008 6.85344,-0.108268 9.40904,-0.222755 l 4.64655,-0.20816 0.20536,1.540271 c 0.37898,2.842461 0.4015,18.651497 0.0265,18.637307 -0.19403,-0.007 -3.46807,-3.06342 -7.27565,-6.7913 z M 6.4660205,32.918783 c -0.0966,-0.251841 -0.11996,-0.744978 -0.0518,-1.095861 0.13616,-0.701192 -0.6592,-0.657733 15.0348695,-0.821539 3.93887,-0.04111 7.24804,0.01171 7.35371,0.11738 0.10567,0.105671 0.0932,0.640045 -0.0276,1.187492 l -0.21974,0.995366 -10.95684,0.03753 C 8.9155905,33.368891 6.6053105,33.281651 6.4660705,32.918788 Z M 73.65784,33.287719 c -0.0781,-0.07807 -4.64198,-0.16074 -10.14203,-0.183717 -5.50005,-0.02296 -10.21425,-0.123959 -10.47601,-0.224405 -0.81233,-0.311718 -0.57662,-1.833019 0.31782,-2.051283 0.43657,-0.106532 5.55625,-0.149243 11.37709,-0.09492 l 10.58333,0.09878 v 1.017923 c 0,0.71968 -0.22242,1.100197 -0.75913,1.29874 -0.41752,0.15445 -0.823,0.216945 -0.90107,0.138879 z M 29.7688,32.616672 c -0.10734,-0.279707 -0.13999,-0.795645 -0.0726,-1.146528 0.11457,-0.596188 0.83601,-0.645076 11.01613,-0.746527 6.10376,-0.06083 11.03235,0.03023 11.20924,0.207137 0.18574,0.185744 0.16868,0.702387 -0.0415,1.255088 l -0.35716,0.939391 H 40.74339 c -9.06224,0 -10.81062,-0.08102 -10.97468,-0.508561 z m 70.65417,-10.868524 c -0.39735,-20.0761204 -0.2781,-34.008342 0.29516,-34.484108 0.27399,-0.227393 0.66035,-0.31321 0.85857,-0.190704 0.23932,0.147908 0.3612,7.9210616 0.36281,23.137317 0.002,21.987494 -0.0238,22.91458 -0.64448,22.91458 -0.6093,0 -0.65997,-0.661018 -0.87206,-11.377085 z m 2.86499,9.877779 c -0.0825,-0.824618 -0.18518,-11.143369 -0.22816,-22.9305584 -0.077,-21.1295626 -0.0683,-21.4312506 0.61836,-21.4312506 0.38308,0 0.77778,0.277812 0.87713,0.617361 0.0994,0.339548 0.22756,5.0169656 0.28493,10.3942606 0.10042,9.412253 0.0781,9.79669 -0.59782,10.307531 -0.58839,0.444668 -0.60824,0.532449 -0.12252,0.541851 0.31879,0.0062 0.64676,0.209657 0.72881,0.452192 0.0821,0.242535 0.13495,5.4894104 0.11754,11.6597264 -0.0268,9.483853 -0.11218,11.269678 -0.55242,11.548069 -0.84873,0.536713 -0.96849,0.413406 -1.12585,-1.159182 z m 2.89814,-10.457396 c 0,-12.3832424 0.0586,-12.8908004 1.34055,-11.6088564 0.5202,0.5202024 0.61738,23.2127804 0.0994,23.2127804 -0.17816,0 -0.57503,0.09636 -0.88194,0.214132 -0.50212,0.192681 -0.55802,-0.99121 -0.55802,-11.818056 z m 3.03635,11.398681 C 109.10468,32.260303 109.00832,21.851135 109.00832,9.4357306 V -13.137732 l 0.79375,0.11273 0.79375,0.112731 0.0607,11.2888896 c 0.0334,6.208889 0.17594,16.1452824 0.31686,22.0808714 0.14092,5.935585 0.15029,11.214023 0.0208,11.729862 -0.26371,1.050699 -1.41921,1.298444 -1.7717,0.37986 z m 37.88587,-0.08847 c 0,-0.397641 0.12553,-0.800559 0.27894,-0.895379 0.56289,-0.347881 22.11835,-1.080759 22.62254,-0.769158 0.25576,0.158066 0.27104,0.447813 0.0458,0.868659 -0.30832,0.57609 -1.25995,0.653486 -10.84888,0.882315 -5.781,0.137961 -10.8681,0.337619 -11.30466,0.443689 -0.62768,0.152502 -0.79375,0.04158 -0.79375,-0.530126 z m 24.25347,-0.26197 c -0.48667,-0.49198 -0.27162,-1.477126 0.35278,-1.616117 0.33955,-0.07559 5.24003,-0.191918 10.88996,-0.258519 7.84765,-0.09251 10.33581,-0.01884 10.54034,0.312109 0.14725,0.238263 0.0771,0.551022 -0.1559,0.695022 -0.233,0.144 -4.42052,0.370371 -9.30561,0.503047 -4.88509,0.132676 -9.59636,0.329135 -10.46948,0.436577 -0.87313,0.107442 -1.70657,0.07499 -1.85209,-0.07212 z M 147.2811,29.944386 c -0.39154,-0.633529 0.35519,-1.139127 1.83302,-1.241108 0.74007,-0.05107 5.77735,-0.148583 11.19395,-0.216701 7.24552,-0.09111 9.88437,-0.01584 9.9846,0.284798 0.0749,0.224755 -0.002,0.49433 -0.17187,0.599059 -0.16945,0.104729 -4.7419,0.278627 -10.16099,0.386436 -5.41908,0.107813 -10.4319,0.286001 -11.13959,0.395972 -0.79744,0.12392 -1.38269,0.04465 -1.53912,-0.208456 z M 6.3499805,29.073481 c 0,-0.465025 0.11906,-0.917092 0.26459,-1.004595 0.14552,-0.0875 5.1858295,-0.215935 11.2006895,-0.285404 l 10.93611,-0.126305 0.11294,0.795327 c 0.0621,0.43743 -0.0966,0.862368 -0.35278,0.944308 -0.25614,0.08194 -5.34728,0.232946 -11.31363,0.335573 L 6.3499805,29.918976 Z M 29.84419,29.69074 c -0.11598,-0.115983 -0.21087,-0.581294 -0.21087,-1.034027 0,-0.687935 0.18833,-0.8276 1.14652,-0.850248 0.63059,-0.01489 5.55994,-0.08617 10.9541,-0.158369 8.51995,-0.114039 9.83452,-0.06105 10.01282,0.403588 0.11288,0.294175 0.0498,0.690281 -0.14013,0.880234 -0.20058,0.200579 -4.62021,0.421368 -10.54198,0.526637 -5.60814,0.09969 -10.37953,0.240168 -10.60309,0.312163 -0.22357,0.072 -0.50138,0.036 -0.61737,-0.07998 z m 23.38725,-0.532579 c -0.43389,-0.158446 -0.67243,-0.508864 -0.60035,-0.881944 0.11079,-0.573437 0.94625,-0.622783 11.34051,-0.669837 9.54887,-0.04323 11.25037,0.026 11.41871,0.464686 0.47636,1.24139 -0.4117,1.35 -11.03849,1.35 -5.72023,0 -10.7244,-0.118308 -11.12038,-0.262905 z m 117.98418,-0.113767 c -0.11307,-0.294636 -0.14627,-0.592374 -0.0738,-0.661642 0.0725,-0.06927 5.01334,-0.239635 10.9797,-0.37859 9.94176,-0.231546 10.84791,-0.204096 10.84791,0.328616 0,0.319694 -0.19843,0.643505 -0.44097,0.719578 -0.24253,0.07607 -5.09089,0.225933 -10.77412,0.333026 -9.03541,0.170261 -10.35897,0.127438 -10.53872,-0.340988 z m -23.81206,-1.809718 c -0.2127,-0.256057 -0.22706,-0.643926 -0.0364,-0.984557 0.27354,-0.488781 1.765,-0.58837 11.44011,-0.763891 9.53583,-0.172992 11.15368,-0.128552 11.32235,0.310995 0.43573,1.135493 -0.28798,1.265325 -8.20503,1.471979 -4.36539,0.113947 -9.33948,0.247858 -11.05355,0.297575 -2.09004,0.06063 -3.23207,-0.04875 -3.46745,-0.332101 z m 23.84042,-0.430047 c -0.40935,-0.40996 -0.0614,-1.380529 0.55239,-1.541053 0.38454,-0.10056 5.34312,-0.158761 11.01907,-0.129339 9.44079,0.04894 10.32987,0.105011 10.43678,0.658251 0.0765,0.396053 -0.16514,0.667512 -0.70032,0.786596 -0.99113,0.220543 -21.10037,0.433402 -21.30792,0.225545 z M 6.3499805,26.024098 c 0,-0.375166 0.19844,-0.747611 0.44097,-0.827652 0.24254,-0.08004 5.2509695,-0.226452 11.1298495,-0.32536 9.35149,-0.157332 10.71463,-0.112699 10.89476,0.356704 0.11324,0.295095 0.0658,0.667822 -0.10554,0.828287 -0.17128,0.160464 -5.27236,0.372389 -11.33573,0.470948 C 6.6496405,26.701346 6.3499805,26.687676 6.3499805,26.024098 Z M 29.7572,25.883671 c -0.11966,-0.311838 -0.0774,-0.706935 0.0939,-0.877997 0.17128,-0.171062 5.15077,-0.358828 11.06552,-0.417259 10.29029,-0.101656 10.75964,-0.07763 10.88263,0.557044 0.0707,0.364807 -0.0708,0.786493 -0.31449,0.937087 -0.24366,0.15059 -5.18308,0.295017 -10.97648,0.32095 -9.37742,0.04198 -10.55735,-0.01506 -10.75104,-0.519825 z m 22.99331,0.255051 c -0.4772,-0.477199 -0.11374,-1.419278 0.60711,-1.573618 0.43657,-0.09348 5.44235,-0.13727 11.12398,-0.09733 10.1637,0.07146 11.81067,0.257531 10.8188,1.22234 -0.34965,0.340113 -22.22323,0.775268 -22.54989,0.448606 z m 94.81512,-2.069363 c -0.38658,-1.00741 0.43453,-1.136449 7.4008,-1.163062 3.92422,-0.01499 8.93075,-0.09413 11.12561,-0.175864 3.92133,-0.146021 3.98876,-0.13542 3.88056,0.610116 -0.12703,0.87528 -0.18872,0.879894 -14.17362,1.060171 -6.15089,0.07929 -8.10596,7.05e-4 -8.23335,-0.331361 z m 24.48075,-0.05361 c -0.70577,-0.08093 -0.95853,-0.284054 -0.87798,-0.705556 0.10129,-0.529925 1.21194,-0.623916 10.6068,-0.897615 8.34096,-0.242997 10.60477,-0.213498 11.03529,0.143799 1.08552,0.900903 -0.17181,1.174673 -5.92145,1.289336 -3.15571,0.06293 -7.56329,0.152506 -9.79461,0.199055 -2.23132,0.04655 -4.50294,0.03348 -5.04805,-0.02903 z M 6.3499105,23.187337 c 10e-5,-0.809032 2.32229,-1.001642 13.2292395,-1.097276 l 8.81944,-0.07733 v 0.810433 0.810433 l -11.02438,0.07151 C 7.2815305,23.770577 6.3498405,23.726807 6.3499105,23.187335 Z M 29.63332,22.740015 c 0,-0.764586 0.15791,-0.814702 3.0868,-0.979657 1.69775,-0.09562 6.65868,-0.157325 11.02431,-0.137128 7.69007,0.03558 7.9375,0.05872 7.9375,0.742279 0,0.683878 -0.26013,0.707856 -8.46667,0.78038 -4.65667,0.04115 -9.6176,0.147973 -11.0243,0.237377 -2.47597,0.157367 -2.55764,0.136825 -2.55764,-0.643251 z m 30.51528,0.507439 c -7.11436,-0.16939 -7.40834,-0.204389 -7.40834,-0.881945 0,-0.684925 0.29398,-0.710713 10.05417,-0.881944 9.11373,-0.15989 9.92501,-0.221982 8.67335,-0.663826 -1.03355,-0.364857 -3.47782,-0.481778 -9.71932,-0.464922 -4.58618,0.01238 -8.55201,-0.109435 -8.81295,-0.270708 -0.26095,-0.161275 -0.37692,-0.547373 -0.25773,-0.857997 0.19238,-0.501333 1.46737,-0.56477 11.35137,-0.56477 11.95235,0 12.04837,0.01521 11.11519,1.758873 -0.29198,0.545564 -0.29784,0.8841 -0.0211,1.217574 0.43798,0.527741 0.14205,1.589207 -0.46033,1.651085 -1.27796,0.131279 -8.07582,0.111876 -14.51432,-0.04142 z M 74.4361,21.34492 c 0,-0.07626 -0.23813,-0.230022 -0.52917,-0.341708 -0.29104,-0.111682 -0.52917,-0.04929 -0.52917,0.138645 0,0.187939 0.23813,0.341708 0.52917,0.341708 0.29104,0 0.52917,-0.06239 0.52917,-0.138645 z m 73.1095,0.203126 c -0.098,-0.255577 -0.038,-0.594999 0.13324,-0.754271 0.17128,-0.159276 5.31205,-0.347042 11.42393,-0.417262 9.69933,-0.111436 11.1125,-0.06038 11.1125,0.401496 0,0.667922 -3.89202,0.96356 -14.77352,1.122201 -6.13921,0.08951 -7.75441,0.01746 -7.89615,-0.352164 z m 23.55161,-0.78394 c 0,-0.558006 0.44922,-0.645449 3.96875,-0.772541 7.95352,-0.287203 17.85155,-0.28853 18.02838,-0.0025 0.57185,0.925269 -0.70293,1.06613 -11.14921,1.231967 -10.23848,0.162542 -10.84792,0.136867 -10.84792,-0.457013 z M 6.3499805,20.241741 c 0,-0.829373 0.10543,-0.875055 2.02847,-0.878886 1.11566,-0.0021 6.1162895,-0.105572 11.1124995,-0.229665 l 9.08403,-0.225623 v 0.769903 c 0,0.423449 -0.19843,0.831003 -0.44097,0.905679 -0.24253,0.07467 -5.24316,0.225245 -11.1125,0.334603 L 6.3499805,21.116584 Z M 29.63332,19.761491 c 0,-0.693752 0.19615,-0.750098 2.73402,-0.785368 1.50372,-0.02088 5.03591,-0.102334 7.84931,-0.180972 2.8134,-0.07864 6.59238,-0.04607 8.39772,0.07236 2.74993,0.180403 3.26481,0.306917 3.17374,0.779819 -0.0961,0.499261 -1.38222,0.581635 -11.13175,0.713003 l -11.02304,0.148528 z m 118.19663,-0.330437 c -0.58282,-0.194274 -0.42978,-1.06626 0.24851,-1.415909 0.33955,-0.17503 5.43177,-0.42775 11.31605,-0.561594 l 10.69868,-0.243353 -0.11535,0.797091 c -0.10764,0.743779 -0.3041,0.802312 -2.93757,0.875164 -4.37238,0.12096 -16.07669,0.522051 -17.53462,0.600886 -0.71876,0.03887 -1.47283,0.01535 -1.6757,-0.05228 z m 24.06101,-0.704105 c -0.48951,-0.07072 -0.79375,-0.360123 -0.79375,-0.755051 0,-0.862965 1.47635,-0.969588 12.87639,-0.92995 7.90372,0.02748 9.17222,0.105078 9.17222,0.561061 0,0.579173 -0.0795,0.587026 -8.99583,0.888905 -9.0342,0.305869 -11.44837,0.352153 -12.25903,0.235035 z M 6.4386705,17.678073 c -0.1003,-0.261398 -0.0422,-0.603081 0.12905,-0.759298 0.17129,-0.156217 5.1757295,-0.384393 11.1209895,-0.507058 9.90133,-0.20429 10.82857,-0.173478 11.03587,0.366734 0.12447,0.324369 0.10204,0.71229 -0.0498,0.862051 -0.15188,0.149758 -5.1761,0.326411 -11.16492,0.392561 -8.8880195,0.09817 -10.9222895,0.03295 -11.0711495,-0.35499 z M 30.6935,17.622713 c -0.48405,-0.124862 -0.93269,-0.500154 -0.99698,-0.833981 -0.10886,-0.565249 0.6425,-0.600547 10.93426,-0.513697 9.54661,0.08056 11.05115,0.165297 11.05115,0.622423 0,0.4535 -1.18547,0.538544 -8.29028,0.594731 -4.55965,0.03606 -9.08403,0.131258 -10.05417,0.211554 -0.97014,0.08029 -2.15993,0.04383 -2.64398,-0.08103 z m 21.96578,-0.632687 c -0.10041,-0.261677 -0.11769,-0.540657 -0.0384,-0.619951 0.0793,-0.07929 5.13922,-0.191509 11.24428,-0.249368 10.89998,-0.1033 11.10011,-0.09248 11.10011,0.600358 0,0.690139 -0.24172,0.705982 -11.06171,0.725148 -8.96916,0.01588 -11.09624,-0.07041 -11.24427,-0.456187 z m 94.86093,-1.20438 c 0.10173,-0.718668 0.37444,-0.860538 2.05756,-1.070413 1.06715,-0.133064 2.8134,-0.184908 3.88055,-0.115203 1.06715,0.0697 2.37684,0.138889 2.91042,0.153744 1.25965,0.03507 1.42869,1.428758 0.17639,1.454334 -0.43657,0.0089 -2.67215,0.103914 -4.96798,0.211109 l -4.17422,0.194903 z m 10.98261,-0.180139 c -0.37084,-0.966407 0.68063,-1.166597 6.1562,-1.172097 5.14647,-0.0052 5.37986,0.02519 5.37986,0.700154 0,0.388056 -0.19844,0.716407 -0.44098,0.729668 -0.24253,0.01326 -2.79125,0.08291 -5.66381,0.154768 -4.45749,0.111509 -5.25338,0.05106 -5.43127,-0.412493 z m 12.82422,0.345846 c -0.12641,-0.126404 -0.22983,-0.520866 -0.22983,-0.876586 0,-0.535196 0.28905,-0.648222 1.67569,-0.655242 0.92164,-0.0047 5.8403,-0.103776 10.93036,-0.220245 8.43294,-0.192959 9.2747,-0.159531 9.48039,0.376476 0.12415,0.323532 0.13576,0.678201 0.0258,0.788155 -0.10995,0.109953 -3.20183,0.253777 -6.87083,0.319606 -3.669,0.06583 -8.49585,0.204734 -10.72634,0.308677 -2.23048,0.103942 -4.15884,0.08557 -4.28525,-0.04084 z M 6.3499805,14.588823 v -0.86637 l 5.0270895,-0.02676 c 2.76489,-0.01472 7.72583,-0.0544 11.0243,-0.08819 5.59719,-0.05734 5.99722,-0.01841 5.99722,0.583691 0,0.704335 1.4111,0.607028 -15.7868,1.08864 L 6.3499805,15.455193 Z M 29.66809,14.522903 c -0.48979,-0.377168 -0.49606,-0.478795 -0.0477,-0.772922 0.45459,-0.298188 13.07135,-0.552309 19.41565,-0.391061 2.31822,0.05892 3.25956,0.431067 2.6282,1.039022 -0.54871,0.528362 -21.31912,0.64636 -21.99621,0.124961 z m 29.86314,0.338617 c -6.53035,-0.08965 -6.96736,-0.136927 -6.96736,-0.75371 0,-0.895593 0.28944,-0.917373 12.17084,-0.915843 l 10.23055,0.0013 V 14.0186 c 0,0.816262 -0.0465,0.825956 -4.23333,0.881946 -2.32833,0.03115 -7.36865,0.01358 -11.2007,-0.03904 z m 88.13291,-1.726001 c -0.37864,-0.986709 0.75434,-1.103392 12.96145,-1.334876 l 9.46033,-0.179396 -0.11171,0.786018 c -0.12842,0.903509 0.70184,0.839337 -13.59423,1.050729 -6.68193,0.0988 -8.58115,0.02854 -8.71584,-0.322475 z m 23.58033,-0.08923 c -0.081,-0.08084 -0.14726,-0.413295 -0.14726,-0.738777 0,-0.536201 0.99761,-0.611122 10.62094,-0.797647 5.84151,-0.113223 10.84214,-0.120977 11.1125,-0.01723 0.60519,0.232236 0.642,1.036863 0.0638,1.394228 -0.43817,0.270804 -21.38383,0.425044 -21.64995,0.159426 z M 6.3499805,11.605786 c 0,-0.662521 0.25283,-0.708783 4.1451395,-0.758472 8.16337,-0.104213 17.78535,-0.0064 17.97446,0.1827 0.10591,0.105911 0.0986,0.437537 -0.0163,0.736947 -0.18207,0.474473 -1.61471,0.544381 -11.15608,0.544381 -10.7119995,0 -10.9471795,-0.01516 -10.9471795,-0.705556 z M 29.8979,12.111723 c -0.14552,-0.148913 -0.26458,-0.47799 -0.26458,-0.731282 0,-0.366843 2.2248,-0.480473 10.93629,-0.558565 10.21775,-0.09159 10.93629,-0.05747 10.93612,0.519327 -1.8e-4,0.571577 -0.66079,0.617589 -8.90783,0.620427 -4.8992,0.0017 -9.70139,0.09707 -10.67153,0.211956 -0.97014,0.114889 -1.88295,0.08705 -2.02847,-0.06186 z m 22.66597,-0.644582 c 0,-0.270283 0.19844,-0.565998 0.44097,-0.657144 0.24254,-0.09115 5.32254,-0.192985 11.28889,-0.226311 10.69395,-0.05973 10.84792,-0.0504 10.84792,0.657144 0,0.706841 -0.17133,0.717734 -11.28889,0.717734 -9.41403,0 -11.28889,-0.08161 -11.28889,-0.491423 z m 95.25001,-1.119102 c 0,-0.290557 0.19843,-0.5905154 0.44097,-0.6665724 0.82529,-0.258808 21.78374,-0.478205 21.93737,-0.229645 0.52377,0.8474864 -0.94959,1.0042844 -11.35404,1.2083164 -9.65226,0.18928 -11.0243,0.150438 -11.0243,-0.312099 z m 23.28333,-0.5283764 c 0,-0.601617 0.26363,-0.684896 2.20486,-0.696495 1.21267,-0.0072 6.13305,-0.101888 10.93417,-0.210318 7.87641,-0.177883 8.75098,-0.140642 8.95122,0.381166 0.12205,0.318071 0.1583,0.641928 0.0805,0.7196834 -0.0777,0.07775 -5.09799,0.219653 -11.15608,0.315329 -10.71993,0.1693 -11.01471,0.155668 -11.01471,-0.5093654 z M 8.1138705,9.1844946 c 0,-0.513088 20.2095095,-20.2011646 20.4319195,-19.9047436 0.11448,0.152582 0.15668,4.7621096 0.0938,10.24339457 L 28.52522,9.4891186 H 18.31956 c -5.61312,0 -10.2056695,-0.137081 -10.2056695,-0.304624 z M 21.8722,3.9505076 c 0,-0.709433 -0.10197,-0.850522 -0.39962,-0.552879 -0.21979,0.219791 -0.30414,0.648416 -0.18746,0.9525 0.32295,0.841578 0.58708,0.661782 0.58708,-0.399621 z m 7.77398,4.690496 c -0.4469,-1.175428 -0.38622,-19.6776016 0.0663,-20.2310846 0.2752,-0.336563 2.90143,-0.438765 11.03346,-0.429374 l 10.67229,0.01233 0.15677,2.9869846 c 0.0862,1.642843 0.0662,3.741061 -0.0446,4.662708 -0.11073,0.921648 -0.10718,4.21572297 0.008,7.320167 0.11509,3.104445 0.07,5.825952 -0.10016,6.047795 -0.21916,0.285696 -3.39674,0.411128 -10.89367,0.430017 l -10.58426,0.02667 -0.31412,-0.826204 z M 41.10703,0.64308857 c 0.26436,-0.832905 0.0401,-1.212379 -0.51413,-0.869865 -0.4627,0.285964 -0.50151,1.60200603 -0.0472,1.60200603 0.18095,0 0.43357,-0.329464 0.56138,-0.73214103 z M 52.91004,8.5891296 c -0.41244,-1.08381 -0.64526,-19.9054426 -0.24926,-20.1501846 0.18284,-0.112999 0.9899,0.442651 1.79346,1.234777 0.80356,0.7921266 1.69915,1.6479046 1.99019,1.9017286 6.99774,6.102895 18.37435,16.942099 18.23141,17.37019 -0.0813,0.243489 -3.71991,0.36709 -10.80651,0.36709 -10.44806,0 -10.69001,-0.01597 -10.95929,-0.723601 z m 53.28441,-0.751169 c 0.005,-0.353044 -0.0657,-5.035351 -0.1561,-10.405128 -0.13776,-8.1791376 -0.0826,-9.8311476 0.33994,-10.1818286 0.27741,-0.230229 0.74689,-0.325537 1.0433,-0.211795 0.46962,0.180212 0.5269,1.557506 0.44546,10.7109956 l -0.0935,10.504192 -0.79375,0.112731 c -0.57579,0.08178 -0.79145,-0.06353 -0.78539,-0.529167 z m 41.9722,0.116043 c 0,-0.300571 0.23471,-0.677843 0.52158,-0.838382 0.28687,-0.160539 4.80873,-4.469537 10.04857,-9.575551 5.23985,-5.106013 9.92639,-9.5978226 10.41453,-9.9818006 l 0.88755,-0.698139 0.0301,1.348521 c 0.21406,9.5948566 0.23309,13.8659996 0.0737,16.5389986 l -0.19058,3.196032 -5.68924,0.06285 c -3.12908,0.03457 -8.0308,0.159852 -10.89271,0.278406 -4.55621,0.188741 -5.20348,0.147575 -5.20348,-0.330938 z M 6.4047805,-1.5942814 c 0.0669,-5.319759 0.20513,-9.7556916 0.30723,-9.8576296 0.36247,-0.361886 19.3939395,-0.413356 19.3937295,-0.05245 -1.8e-4,0.311033 -19.3833895,19.5823676 -19.6960395,19.5823676 -0.0696,0 -0.0718,-4.35253 -0.005,-9.672289 z M 171.15123,7.5488416 c -0.19673,-0.301207 -0.14608,-21.0215396 0.0518,-21.2105626 0.0388,-0.03705 4.99178,-0.1217 11.00664,-0.18812 l 10.93611,-0.120764 -0.0579,10.7597226 -0.0579,10.759724 -2.7643,0.08491 c -8.96689,0.275423 -18.90796,0.231264 -19.11445,-0.08491 z m 17.76126,-17.109724 c 0.11991,-0.194028 0.0499,-0.352778 -0.15557,-0.352778 -0.20548,0 -0.3736,0.15875 -0.3736,0.352778 0,0.194028 0.07,0.352778 0.15557,0.352778 0.0856,0 0.25368,-0.15875 0.3736,-0.352778 z m -112.35973,7.299086 c 0,-7.718079 0.10218,-10.0820536 0.44097,-10.2021846 0.79553,-0.282084 19.66737,-0.33376 19.66737,-0.05385 0,0.277576 -19.35909,19.9688606 -19.84375,20.1842686 -0.14553,0.06468 -0.26459,-4.403027 -0.26459,-9.92823 z m -3.0731,7.369984 c -4.13721,-4.034362 -11.0359,-10.465779 -13.68345,-12.756607 -1.55201,-1.342896 -3.25416,-2.8211226 -3.78255,-3.2849476 -0.52839,-0.463825 -0.88727,-0.962157 -0.7975,-1.107403 0.0898,-0.145247 4.44864,-0.285775 9.68637,-0.312286 5.23774,-0.02651 9.74929,-0.134972 10.02566,-0.241027 0.29937,-0.114878 0.56444,0.06705 0.65572,0.450048 0.29984,1.258017 0.33368,18.7253416 0.0366,18.8836966 -0.16634,0.08866 -1.12971,-0.6455 -2.14082,-1.631474 z m 70.62025,-0.880547 c -4.08899,-4.04942203 -14.64749,-13.843244 -17.27631,-16.0251086 -0.58209,-0.483115 -0.97029,-0.966711 -0.86268,-1.074658 0.32592,-0.326946 19.99552,-0.654611 20.18075,-0.33618 0.31945,0.549172 0.67898,19.5224246 0.36993,19.5224246 -0.16766,0 -1.25292,-0.938915 -2.41169,-2.086478 z m 3.1848,-7.925812 v -9.5668776 l 3.35139,-0.211395 c 1.84326,-0.116267 6.32795,-0.24096 9.96597,-0.277095 5.58737,-0.0555 6.61458,0.01411 6.61458,0.448233 0,0.282664 -2.01757,2.391732 -4.4835,4.6868176 -2.46593,2.295086 -6.75123,6.417725 -9.5229,9.16141997 -2.77167,2.74369403 -5.23878,5.06441403 -5.48247,5.15715503 -0.34883,0.132753 -0.44307,-1.866284 -0.44307,-9.398258 z M 0.24097048,139.59799 c -0.11262,-0.28142 -0.19621,-0.19783 -0.21314,0.21314 -0.0153,0.37188 0.0681,0.58024 0.18529,0.46302 0.11722,-0.11723 0.12976,-0.4215 0.0279,-0.67616 z M 198.85486,136.77577 c -0.11261,-0.28143 -0.1962,-0.19783 -0.21313,0.21313 -0.0153,0.37189 0.0681,0.58025 0.18529,0.46302 0.11722,-0.11722 0.12975,-0.42149 0.0278,-0.67615 z m 1.17013,-40.658871 c 0,-0.27959 -0.15875,-0.60646 -0.35278,-0.72638 -0.19403,-0.11992 -0.35278,0.10884 -0.35278,0.50835 0,0.3995 0.15875,0.72637 0.35278,0.72637 0.19403,0 0.35278,-0.22875 0.35278,-0.50834 z M 0.70554048,64.366889 c 0,-0.27959 -0.15875,-0.60646 -0.35278,-0.72637 -0.19403,-0.11992 -0.352780003809,0.10884 -0.352780003809,0.50834 0,0.39951 0.158750003809,0.72638 0.352780003809,0.72638 0.19403,0 0.35278,-0.22876 0.35278,-0.50835 z M 203.55277,41.768289 c 0,-0.291042 -0.14938,-0.529167 -0.33196,-0.529167 -0.44485,0 -0.76345,0.550894 -0.4816,0.832739 0.39729,0.397292 0.81356,0.241967 0.81356,-0.303572 z m -3.41189,-5.768545 c -0.14072,-0.538131 -0.30283,-0.6734 -0.47437,-0.395838 -0.33969,0.549628 0.011,1.890515 0.39417,1.507307 0.16168,-0.161689 0.19778,-0.66185 0.0802,-1.111469 z M 14.17577,-17.045651 c -0.25314,-0.25314 -0.41745,-0.273969 -0.41745,-0.05292 0,0.470881 0.41719,0.88808 0.65263,0.652639 0.10025,-0.100248 -0.006,-0.370123 -0.23518,-0.599722 z"
       id="path10234"
       inkscape:connector-curvature="0" />
  </g>
</svg>
